<svg width="33" height="32" viewBox="0 0 33 32" fill="none" xmlns="http://www.w3.org/2000/svg">
<g clip-path="url(#clip0)">
<path d="M32.178 15.6252C32.7581 14.9872 32.702 14.0094 32.0529 13.4417L17.7517 0.92807C17.1026 0.360406 16.0618 0.372297 15.4264 0.954878L1.07655 14.1089C0.441082 14.6915 0.409893 15.668 1.00749 16.2892L1.36726 16.6639C1.96414 17.2851 2.92891 17.3591 3.52078 16.8288L4.5932 15.8684V29.9288C4.5932 30.7915 5.2922 31.4898 6.15423 31.4898H11.7478C12.6099 31.4898 13.3089 30.7915 13.3089 29.9288V20.0922H20.4436V29.9288C20.4311 30.7908 21.0479 31.4892 21.91 31.4892H27.8378C28.6998 31.4892 29.3988 30.7908 29.3988 29.9282V16.0664C29.3988 16.0664 29.6951 16.3259 30.0605 16.6471C30.4252 16.9677 31.1914 16.7106 31.7715 16.072L32.178 15.6252Z" fill="#A3D5FF"/>
</g>
<defs>
<clipPath id="clip0">
<rect width="32" height="32" fill="white" transform="translate(0.578857)"/>
</clipPath>
</defs>
</svg>
