<svg width="32" height="32" viewBox="0 0 32 32" fill="none" xmlns="http://www.w3.org/2000/svg">
<path d="M27.8751 17.7325H14.3104V3.26468C14.3104 2.91614 14.1656 2.58284 13.912 2.34981C13.658 2.11745 13.317 2.00398 12.9819 2.04632C5.58121 2.90564 0 9.31309 0 16.9511C0 25.2279 6.55643 31.9602 14.6148 31.9602C21.812 31.9602 28.0208 26.4469 29.0574 19.1351C29.1065 18.7835 29.0053 18.4252 28.7781 18.1562C28.5515 17.8873 28.2217 17.7325 27.8751 17.7325Z" fill="#ffffff"/>
<path d="M16.9033 0.0413721C16.7193 0.028501 16.5415 0.0948889 16.409 0.222923C16.2757 0.351295 16.2002 0.530136 16.2002 0.717784V15.8925L30.4984 15.8881C30.6771 15.8881 30.8483 15.8136 30.972 15.6822C31.0963 15.5501 31.1632 15.3726 31.1576 15.1893C30.907 7.08561 24.7786 0.573492 16.9033 0.0413721Z" fill="#ffffff"/>
</svg>
