<svg width="32" height="32" viewBox="0 0 32 32" fill="none" xmlns="http://www.w3.org/2000/svg">
<g clip-path="url(#clip0)">
<path d="M4.62496 15C5.36188 15 6.03129 14.699 6.52407 14.2109L9.21074 15.5906C9.19695 15.7043 9.18911 15.8198 9.18911 15.9375C9.18911 17.4883 10.4176 18.75 11.9276 18.75C13.4376 18.75 14.6661 17.4883 14.6661 15.9375C14.6661 15.5039 14.5698 15.0928 14.3984 14.7256L18.0502 10.9751C18.4077 11.1511 18.808 11.25 19.2302 11.25C20.7402 11.25 21.9687 9.98828 21.9687 8.4375C21.9687 8.14453 21.9247 7.86206 21.8434 7.59644L25.016 5.15283C25.4505 5.45093 25.9721 5.625 26.5329 5.625C28.0428 5.625 29.2713 4.36328 29.2713 2.8125C29.2713 1.26172 28.0428 0 26.5329 0C25.0229 0 23.7944 1.26172 23.7944 2.8125C23.7944 3.10547 23.8383 3.38794 23.9196 3.65356L20.7471 6.09717C20.3125 5.79907 19.791 5.625 19.2302 5.625C17.7203 5.625 16.4917 6.88672 16.4917 8.4375C16.4917 8.87109 16.588 9.28223 16.7594 9.64941L13.1076 13.3999C12.7501 13.2239 12.3498 13.125 11.9276 13.125C11.1907 13.125 10.5213 13.426 10.0285 13.9141L7.34182 12.5344C7.3556 12.4207 7.36345 12.3052 7.36345 12.1875C7.36345 10.6367 6.13493 9.375 4.62496 9.375C3.11499 9.375 1.88647 10.6367 1.88647 12.1875C1.88647 13.7383 3.11499 15 4.62496 15Z" fill="#ffffff"/>
<path d="M30.2451 30.125H29.2714V10.3125C29.2714 9.79468 28.8627 9.375 28.3586 9.375H24.7072C24.203 9.375 23.7944 9.79468 23.7944 10.3125V30.125H21.9688V15.9375C21.9688 15.4197 21.5601 15 21.0559 15H17.4046C16.9004 15 16.4918 15.4197 16.4918 15.9375V30.125H14.6661V23.4375C14.6661 22.9197 14.2575 22.5 13.7533 22.5H10.102C9.59778 22.5 9.18914 22.9197 9.18914 23.4375V30.125H7.36349V19.6875C7.36349 19.1697 6.95485 18.75 6.45066 18.75H2.79934C2.29515 18.75 1.88651 19.1697 1.88651 19.6875V30.125H0.912829C0.408634 30.125 0 30.5447 0 31.0625C0 31.5803 0.408634 32 0.912829 32H30.2451C30.7493 32 31.1579 31.5803 31.1579 31.0625C31.1579 30.5447 30.7493 30.125 30.2451 30.125Z" fill="#ffffff"/>
</g>
<defs>
<clipPath id="clip0">
<rect width="31.1579" height="32" fill="white"/>
</clipPath>
</defs>
</svg>
