<svg width="32" height="32" viewBox="0 0 32 32" fill="none" xmlns="http://www.w3.org/2000/svg">
<path d="M31.4667 22.6935H30.9333C30.639 22.6935 30.4 22.925 30.4 23.2101C30.4 23.4953 30.639 23.7268 30.9333 23.7268H31.4667C31.761 23.7268 32 23.4953 32 23.2101C32 22.925 31.761 22.6935 31.4667 22.6935Z" fill="white"/>
<path d="M30.7524 16.5498C30.2586 16.385 29.7146 16.5912 29.4666 17.0365C29.4234 17.022 29.3786 17.0132 29.3333 17.0106H26.0799C26.1151 16.8407 26.1332 16.6676 26.1332 16.494C26.1332 16.4403 26.13 16.3865 26.1268 16.3349C26.1268 16.3044 26.1252 16.2744 26.1209 16.2445C26.1129 16.1644 26.1081 16.1277 26.1033 16.0921C26.0932 16.029 26.0809 15.9717 26.0686 15.9179C26.0585 15.8653 26.0446 15.8136 26.027 15.7624C25.9097 15.3558 25.6937 14.9823 25.3966 14.6727C25.379 14.6515 25.3598 14.6319 25.3396 14.6128C25.1193 14.3948 24.8628 14.2139 24.5806 14.0786C24.1998 13.8967 23.7806 13.8027 23.3561 13.8037C23.0617 13.8037 22.8228 13.5722 22.8228 13.2871C22.8228 13.0019 23.0617 12.7704 23.3561 12.7704C23.7566 12.771 24.1544 12.833 24.5353 12.9533C24.7219 12.4227 24.7016 11.8441 24.4776 11.3274H28.1054L29.3102 12.1034C29.3273 12.1122 29.3449 12.1205 29.363 12.1277C29.2446 12.5953 29.4697 13.081 29.9086 13.3063C30.3481 13.5316 30.8889 13.439 31.2217 13.081C31.5545 12.7234 31.5934 12.1923 31.3166 11.7924C31.0398 11.3925 30.5177 11.2261 30.0499 11.3884C30.0105 11.3305 29.9598 11.2809 29.9001 11.2427L28.5614 10.3798C28.4739 10.3235 28.371 10.293 28.2659 10.2936H23.6116C23.2121 10.0264 22.7379 9.88384 22.2526 9.88384L22.251 9.8833L22.2489 9.88378C21.827 9.88276 21.4126 9.99071 21.0478 10.1958C20.8825 10.2888 20.6788 10.2888 20.5134 10.1963C20.3481 10.1039 20.2463 9.93283 20.2468 9.74786C20.2473 9.56289 20.3497 9.39239 20.5156 9.30041C20.8783 9.09837 21.2761 8.96202 21.6894 8.89844C21.5631 7.85837 20.7833 7.00436 19.7332 6.75478V3.57686C19.73 3.53296 19.7209 3.48955 19.7065 3.44771C20.1364 3.22296 20.3539 2.74404 20.2345 2.28521C20.1151 1.82639 19.6889 1.50507 19.2004 1.50507C18.7119 1.50507 18.2857 1.82645 18.1663 2.28521C18.0468 2.74404 18.2644 3.22296 18.6943 3.44771C18.6788 3.48907 18.6697 3.53242 18.6665 3.57686V6.70943C17.5636 6.86286 16.5332 7.56454 16.5332 8.74357C16.5332 9.02874 16.2943 9.26021 15.9999 9.26021C15.7055 9.26021 15.4666 9.02874 15.4666 8.74357C15.4666 7.56454 14.4362 6.86292 13.3333 6.70943V3.57686C13.3333 3.29168 13.0943 3.06021 12.7999 3.06021C12.5056 3.06021 12.2666 3.29168 12.2666 3.57686V6.75539C11.217 7.00442 10.4373 7.85898 10.3104 8.8985C10.7045 8.95845 11.0848 9.08451 11.4336 9.27153C11.6906 9.41049 11.7824 9.72467 11.6394 9.9737C11.4965 10.2227 11.1723 10.3126 10.9146 10.1747C10.5589 9.98193 10.1578 9.88173 9.75038 9.88378C8.5717 9.88536 7.56695 10.7136 7.37651 11.8404L4.46982 11.8259L3.04363 10.4444C2.94388 10.3478 2.80788 10.293 2.66657 10.2935C2.67138 9.80731 2.32951 9.38264 1.84151 9.26893C1.35407 9.15528 0.84951 9.38258 0.62551 9.81761C0.40151 10.2526 0.51726 10.7796 0.903885 11.0886C1.29057 11.3976 1.84682 11.4074 2.2452 11.1113C2.25801 11.134 2.27295 11.1552 2.28945 11.1754L3.87076 12.7073C3.96995 12.8034 4.10488 12.8581 4.24513 12.8586L7.44407 12.8741C7.45207 12.9 7.45582 12.9274 7.46488 12.9527C7.57207 12.9191 7.68357 12.9005 7.79288 12.8757L7.9977 12.8767H7.99988C8.0932 12.8747 8.18445 12.8478 8.26332 12.7998C8.3897 12.7833 8.51663 12.7734 8.64357 12.7698C8.93795 12.7698 9.17688 13.0013 9.17688 13.2865C9.17688 13.5716 8.93795 13.8031 8.64357 13.8031C7.90813 13.801 7.20195 14.0847 6.68357 14.59C6.65795 14.6122 6.63451 14.6359 6.61213 14.6613C6.3172 14.9646 6.10176 15.3314 5.98226 15.7318C5.96145 15.7897 5.94495 15.8491 5.93213 15.9095C5.91826 15.9705 5.90545 16.0278 5.89695 16.0847C5.89107 16.1271 5.88576 16.1632 5.88363 16.1994C5.87832 16.234 5.87457 16.2691 5.87351 16.3042C5.86976 16.3854 5.86657 16.4391 5.86657 16.4933C5.86657 16.6669 5.8847 16.84 5.91988 17.01H2.66657C2.62126 17.0131 2.57645 17.0218 2.53326 17.0358C2.30126 16.6194 1.80688 16.4086 1.33326 16.5243C0.859635 16.64 0.527947 17.0529 0.527947 17.5261C0.527947 17.9994 0.859697 18.4122 1.33326 18.5279C1.80688 18.6436 2.30126 18.4334 2.53326 18.0164C2.57645 18.0309 2.62126 18.0397 2.66657 18.0428H6.39032C6.47513 18.1616 6.56901 18.2737 6.67195 18.3781C7.08101 17.9968 7.57757 17.7152 8.12101 17.5556C8.30338 17.5013 8.50182 17.5452 8.64157 17.6718C8.78132 17.7979 8.84051 17.987 8.79732 18.1668C8.75413 18.3466 8.61438 18.4907 8.43145 18.5439C7.91838 18.6948 7.4677 18.9996 7.14451 19.414C7.1392 19.4202 7.13813 19.4233 7.13332 19.4289C7.09601 19.476 7.06076 19.523 7.0277 19.5726C6.94982 19.6867 6.88157 19.8066 6.82288 19.9311C6.7957 19.9915 6.77007 20.0525 6.74926 20.114C6.71888 20.191 6.69538 20.2706 6.67888 20.3517C6.66288 20.4096 6.64957 20.4679 6.63995 20.5273C6.61432 20.6658 6.60157 20.8058 6.60207 20.9464C6.6042 21.1385 6.62876 21.3297 6.6757 21.5162L4.65226 22.6927H3.19988C2.90551 22.6927 2.66657 22.9241 2.66657 23.2093C2.66657 23.4945 2.90551 23.726 3.19988 23.726H4.79988C4.89645 23.726 4.99132 23.7006 5.07457 23.6521L7.1322 22.456C7.38926 22.7856 7.72632 23.0486 8.11351 23.2217C8.11776 22.3521 8.4127 21.5073 8.95351 20.8135C9.0682 20.6662 9.25538 20.5893 9.4447 20.6114C9.63401 20.6341 9.79613 20.753 9.87032 20.923C9.94445 21.0929 9.91938 21.2888 9.8042 21.4361C9.39407 21.962 9.17382 22.6037 9.17645 23.263C9.17588 23.4568 9.19457 23.6495 9.23245 23.8396V23.8437L9.23407 23.8484C9.24526 23.9073 9.2597 23.9657 9.27726 24.0235C9.28313 24.0421 9.28738 24.0613 9.29007 24.0804C9.29382 24.0943 9.30076 24.1119 9.30663 24.1295C9.32901 24.2086 9.35676 24.2866 9.38876 24.3625C9.40851 24.4168 9.43251 24.4695 9.4597 24.5212C9.46876 24.5377 9.47676 24.5548 9.48426 24.5723C9.49495 24.5894 9.5157 24.6354 9.5237 24.6535C9.53757 24.6845 9.55407 24.7139 9.57226 24.7428C9.58345 24.7594 9.59307 24.7764 9.60263 24.794L9.63251 24.841C9.6837 24.9236 9.7397 25.0043 9.79945 25.0812L9.90395 25.212C10.0618 25.3949 10.2416 25.5591 10.4389 25.7018C10.4874 25.7379 10.5269 25.7648 10.5674 25.7917C10.6917 25.8728 10.8224 25.9446 10.9573 26.0071C11.0528 26.0526 11.1434 26.0887 11.2336 26.1218C11.2901 26.1424 11.353 26.161 11.4154 26.1802C11.4458 26.1889 11.4848 26.2003 11.5205 26.2081C11.5984 26.2287 11.6661 26.2422 11.7317 26.254V29.4093C11.7349 29.4532 11.7439 29.4966 11.7589 29.5385C11.329 29.7632 11.1114 30.2421 11.2309 30.7009C11.3503 31.1598 11.7765 31.4811 12.265 31.4811C12.7535 31.4811 13.1797 31.1597 13.2991 30.7009C13.4186 30.2421 13.2015 29.7632 12.7711 29.5385C12.7861 29.4966 12.7951 29.4532 12.7978 29.4093V26.27C14.3301 26.0406 15.4618 24.7645 15.4645 23.2625C15.4645 22.9773 15.7034 22.7458 15.9978 22.7458C16.2922 22.7458 16.5311 22.9773 16.5311 23.2625C16.5338 24.7644 17.6655 26.0406 19.1978 26.27V29.4093C19.1978 29.6945 19.4368 29.9259 19.7311 29.9259C20.0255 29.9259 20.2644 29.6945 20.2644 29.4093V26.2512C20.3274 26.2404 20.3914 26.2311 20.4516 26.2145C20.5119 26.2006 20.5514 26.1892 20.5876 26.1789C20.6436 26.1613 20.7066 26.1427 20.7689 26.12C20.8532 26.089 20.9439 26.0528 21.0313 26.0109C21.1711 25.9463 21.306 25.872 21.4345 25.7882C21.4697 25.765 21.5097 25.7381 21.5497 25.7081C21.7465 25.5671 21.9257 25.4043 22.0841 25.2235L22.1966 25.0835C22.2569 25.0054 22.3129 24.9248 22.3646 24.8412L22.3956 24.7926C22.4031 24.7797 22.4164 24.7554 22.4249 24.743C22.443 24.7141 22.459 24.6846 22.4734 24.6536C22.4814 24.6355 22.4911 24.618 22.5023 24.6015C22.5097 24.5839 22.5289 24.5379 22.5374 24.5214C22.562 24.4754 22.5833 24.4284 22.6014 24.3798C22.6329 24.3074 22.6596 24.2331 22.682 24.1576L22.6906 24.1313L22.6911 24.1266C22.6974 24.1106 22.7028 24.0941 22.7071 24.0775C22.7092 24.0677 22.7172 24.0336 22.7193 24.0238C22.7369 23.966 22.7513 23.9076 22.7625 23.8487L22.7641 23.844V23.8399C22.8025 23.6498 22.8212 23.4565 22.8201 23.2633C22.8228 22.604 22.6025 21.9623 22.1924 21.4364C22.0772 21.2891 22.0521 21.0938 22.1263 20.9233C22.2004 20.7533 22.3631 20.6345 22.5519 20.6117C22.7412 20.589 22.9284 20.666 23.0431 20.8138C23.5839 21.5076 23.8783 22.3524 23.8831 23.222C24.2703 23.0489 24.6073 22.7859 24.8644 22.4563L26.922 23.6524C27.0047 23.7005 27.0996 23.7263 27.1967 23.7263H28.7967C29.0911 23.7263 29.33 23.4948 29.33 23.2096C29.33 22.9244 29.0911 22.693 28.7967 22.693H27.3444L25.321 21.517C25.3679 21.3305 25.393 21.1393 25.3946 20.9472C25.3951 20.8103 25.3829 20.6733 25.3589 20.538L25.3568 20.5276C25.3482 20.4765 25.3376 20.4258 25.3231 20.3757C25.3077 20.2956 25.2853 20.2171 25.2564 20.1406C25.2522 20.1277 25.2479 20.1184 25.2436 20.1065C25.2234 20.0466 25.1983 19.9872 25.1727 19.9298C25.1162 19.8089 25.05 19.6927 24.9748 19.5821C24.9348 19.5212 24.8975 19.472 24.8586 19.4225C24.5338 19.005 24.0809 18.6976 23.5653 18.5441C23.3823 18.4909 23.2431 18.3467 23.1994 18.167C23.1556 17.9871 23.2154 17.798 23.3551 17.672C23.4949 17.5459 23.6933 17.5015 23.8757 17.5557C24.4191 17.7154 24.9157 17.9975 25.3248 18.3788C25.4277 18.2744 25.5221 18.1618 25.6069 18.043H29.3333C29.3786 18.0399 29.4234 18.0311 29.4666 18.0171C29.6511 18.3504 30.0095 18.5591 30.3999 18.5602C30.922 18.5628 31.3695 18.1985 31.4569 17.6999C31.5444 17.2014 31.2463 16.7146 30.7524 16.5498Z" fill="white"/>
<path d="M1.06669 22.6935H0.533312C0.238937 22.6935 0 22.925 0 23.2101C0 23.4953 0.238937 23.7268 0.533312 23.7268H1.06662C1.361 23.7268 1.59994 23.4953 1.59994 23.2101C1.59994 22.925 1.36106 22.6935 1.06669 22.6935Z" fill="white"/>
<path d="M20.1119 31.1095C20.0601 31.064 20.0004 31.0273 19.9359 31.001C19.737 30.9204 19.5081 30.9632 19.3546 31.1095C19.257 31.2086 19.2015 31.3394 19.1999 31.4763C19.201 31.544 19.2153 31.6107 19.2426 31.6727C19.2698 31.7352 19.3076 31.793 19.3546 31.8432C19.3796 31.8654 19.4063 31.886 19.434 31.9052C19.4639 31.9248 19.4964 31.9403 19.5305 31.9517C19.5609 31.9666 19.5929 31.977 19.6265 31.9827C19.6617 31.9884 19.6975 31.992 19.7332 31.993C19.8031 31.9946 19.8724 31.9806 19.9359 31.9517C20.0005 31.9253 20.0601 31.8886 20.1119 31.8432C20.1588 31.793 20.1967 31.7352 20.2239 31.6727C20.2511 31.6107 20.2655 31.544 20.2666 31.4763C20.2645 31.3394 20.2095 31.2087 20.1119 31.1095Z" fill="white"/>
<path d="M13.1733 1.14336C12.9615 0.952213 12.633 0.952213 12.4213 1.14336C12.3237 1.24254 12.2682 1.37326 12.2666 1.51021C12.2687 1.64711 12.3237 1.77783 12.4213 1.87707C12.5237 1.9711 12.6586 2.02486 12.8 2.02692C13.0939 2.02486 13.3312 1.79497 13.3333 1.51027C13.3317 1.37223 13.2741 1.24048 13.1733 1.14336Z" fill="white"/>
</svg>
