<svg width="32" height="32" viewBox="0 0 32 32" fill="none" xmlns="http://www.w3.org/2000/svg">
<path d="M28.6284 17.7324H14.6971V3.26452C14.6971 2.91599 14.5484 2.58269 14.288 2.34966C14.0272 2.1173 13.6769 2.00383 13.3328 2.04617C5.73206 2.90549 0 9.31294 0 16.9509C0 25.2278 6.73363 31.96 15.0098 31.96C22.4015 31.96 28.7782 26.4468 29.8427 19.135C29.8932 18.7834 29.7892 18.425 29.5558 18.1561C29.3231 17.8871 28.9844 17.7324 28.6284 17.7324Z" fill="white"/>
<path d="M17.3601 0.0413263C17.1711 0.0284552 16.9886 0.0948431 16.8524 0.222877C16.7156 0.35125 16.638 0.530091 16.638 0.717738V15.8925L31.3226 15.8881C31.5062 15.8881 31.682 15.8135 31.809 15.6821C31.9367 15.55 32.0055 15.3725 31.9997 15.1893C31.7423 7.08556 25.4483 0.573446 17.3601 0.0413263Z" fill="white"/>
</svg>
