<svg width="32" height="32" viewBox="0 0 32 32" fill="none" xmlns="http://www.w3.org/2000/svg">
<g clip-path="url(#clip0)">
<path d="M4.75 15C5.50684 15 6.19433 14.699 6.70044 14.2109L9.45972 15.5906C9.44556 15.7043 9.4375 15.8198 9.4375 15.9375C9.4375 17.4883 10.6992 18.75 12.25 18.75C13.8008 18.75 15.0625 17.4883 15.0625 15.9375C15.0625 15.5039 14.9636 15.0928 14.7876 14.7256L18.5381 10.9751C18.9053 11.1511 19.3164 11.25 19.75 11.25C21.3008 11.25 22.5625 9.98828 22.5625 8.4375C22.5625 8.14453 22.5173 7.86206 22.4338 7.59644L25.6921 5.15283C26.1384 5.45093 26.6741 5.625 27.25 5.625C28.8008 5.625 30.0625 4.36328 30.0625 2.8125C30.0625 1.26172 28.8008 0 27.25 0C25.6992 0 24.4375 1.26172 24.4375 2.8125C24.4375 3.10547 24.4827 3.38794 24.5662 3.65356L21.3079 6.09717C20.8616 5.79907 20.3259 5.625 19.75 5.625C18.1992 5.625 16.9375 6.88672 16.9375 8.4375C16.9375 8.87109 17.0364 9.28223 17.2124 9.64941L13.4619 13.3999C13.0947 13.2239 12.6836 13.125 12.25 13.125C11.4932 13.125 10.8057 13.426 10.2996 13.9141L7.54028 12.5344C7.55444 12.4207 7.5625 12.3052 7.5625 12.1875C7.5625 10.6367 6.30078 9.375 4.75 9.375C3.19922 9.375 1.9375 10.6367 1.9375 12.1875C1.9375 13.7383 3.19922 15 4.75 15Z" fill="white"/>
<path d="M31.0625 30.125H30.0625V10.3125C30.0625 9.79468 29.6428 9.375 29.125 9.375H25.375C24.8572 9.375 24.4375 9.79468 24.4375 10.3125V30.125H22.5625V15.9375C22.5625 15.4197 22.1428 15 21.625 15H17.875C17.3572 15 16.9375 15.4197 16.9375 15.9375V30.125H15.0625V23.4375C15.0625 22.9197 14.6428 22.5 14.125 22.5H10.375C9.85718 22.5 9.4375 22.9197 9.4375 23.4375V30.125H7.5625V19.6875C7.5625 19.1697 7.14282 18.75 6.625 18.75H2.875C2.35718 18.75 1.9375 19.1697 1.9375 19.6875V30.125H0.9375C0.419678 30.125 0 30.5447 0 31.0625C0 31.5803 0.419678 32 0.9375 32H31.0625C31.5803 32 32 31.5803 32 31.0625C32 30.5447 31.5803 30.125 31.0625 30.125Z" fill="white"/>
</g>
<defs>
<clipPath id="clip0">
<rect width="32" height="32" fill="white"/>
</clipPath>
</defs>
</svg>
