<svg width="488" height="181" viewBox="0 0 488 181" fill="none" xmlns="http://www.w3.org/2000/svg">
<path d="M486.818 79.1496L477.511 93.0609L468.203 9.25473L458.896 103.028L449.588 94.0303L440.281 40.6121L430.973 118.291L421.666 61.2639L412.358 57.9786L403.051 69.2008L393.743 97.3595L384.436 80.897L375.129 68.2695L365.821 45.3048L356.514 109.55L347.206 46.0498L337.899 44.4973L328.591 86.0882L319.284 1L309.976 102.817L300.669 8.79247L291.361 19.0976L282.054 22.6498L272.746 34.8526L263.439 56.0961L254.131 154.503L244.824 149.398L235.516 46.0845L226.209 65.1806L216.901 83.1829L207.594 57.1007L198.286 70.6621L188.979 50.9433L179.671 79.3212L170.364 38.219L161.056 76.8223L151.749 65.6568L142.441 57.4932L133.134 31.6345L123.826 37.5617L114.519 90.2806L105.211 8.66306L95.9037 20.1742L86.5962 22.9881L77.2887 39.5041L67.9812 52.6131L58.6737 40.0126L49.3662 50.326L40.0587 65.3607L30.7578 73.8077V154.503H40.0587H49.3662H58.6737H67.9812H77.2887H86.5962H95.9037H105.211H114.519H123.826H133.134H142.441H151.749H161.056H170.364H179.671H188.979H198.286H207.594H216.901H226.209H235.516H244.824H254.131H263.439H272.746H282.054H291.361H300.669H309.976H319.284H328.591H337.899H347.206H356.514H365.821H375.129H384.436H393.743H403.051H412.358H421.666H430.973H440.281H449.588H458.896H468.203H477.511H486.818V79.1496Z" fill="url(#paint0_linear)"/>
<path d="M486.818 79.1496L477.511 93.0609L468.203 9.25473L458.896 103.028L449.588 94.0303L440.281 40.6121L430.973 118.291L421.666 61.2639L412.358 57.9786L403.051 69.2008L393.743 97.3595L384.436 80.897L375.129 68.2695L365.821 45.3048L356.514 109.55L347.206 46.0498L337.899 44.4973L328.591 86.0882L319.284 1L309.976 102.817L300.669 8.79247L291.361 19.0976L282.054 22.6498L272.746 34.8526L263.439 56.0961L254.131 154.503L244.824 149.398L235.516 46.0845L226.209 65.1806L216.901 83.1829L207.594 57.1007L198.286 70.6621L188.979 50.9433L179.671 79.3212L170.364 38.219L161.056 76.8223L151.749 65.6568L142.441 57.4932L133.134 31.6345L123.826 37.5617L114.519 90.2806L105.211 8.66306L95.9037 20.1742L86.5962 22.9881L77.2887 39.5041L67.9812 52.6131L58.6737 40.0126L49.3662 50.326L40.0587 65.3607L30.7578 73.8077" stroke="#4549C4" stroke-width="1.5" stroke-linecap="round" stroke-linejoin="round"/>
<line x1="30" y1="1" x2="30" y2="162" stroke="#6A6DD0" stroke-opacity="0.8" stroke-width="2" stroke-linecap="round" stroke-linejoin="round"/>
<line x1="31" y1="155" x2="487" y2="155" stroke="#6A6DD0" stroke-opacity="0.8" stroke-width="2" stroke-linejoin="round"/>
<path d="M30.8237 169.504V170H28.1117V169.504H29.2477V166.08C29.189 166.16 29.0824 166.251 28.9277 166.352C28.773 166.453 28.605 166.541 28.4237 166.616C28.2424 166.685 28.0824 166.72 27.9437 166.72V166.192C28.0664 166.192 28.1997 166.157 28.3437 166.088C28.493 166.019 28.6317 165.939 28.7597 165.848C28.893 165.752 29.005 165.664 29.0957 165.584C29.1864 165.504 29.237 165.453 29.2477 165.432H29.8077V169.504H30.8237ZM33.0936 171.192C32.6936 171.192 32.3309 171.091 32.0056 170.888C31.6802 170.691 31.4376 170.429 31.2776 170.104L31.6376 169.832C31.7869 170.093 31.9896 170.304 32.2456 170.464C32.5069 170.624 32.7922 170.704 33.1016 170.704C33.3682 170.704 33.6056 170.645 33.8136 170.528C34.0269 170.411 34.1949 170.248 34.3176 170.04C34.4456 169.832 34.5096 169.592 34.5096 169.32C34.5096 169.059 34.4482 168.829 34.3256 168.632C34.2082 168.429 34.0456 168.272 33.8376 168.16C33.6349 168.048 33.4056 167.992 33.1496 167.992C32.9042 167.992 32.6696 168.048 32.4456 168.16C32.2216 168.267 32.0402 168.424 31.9016 168.632H31.3976L32.0296 165.432H34.7736V165.936H32.4376L32.0456 167.976C32.1842 167.827 32.3549 167.712 32.5576 167.632C32.7602 167.547 32.9789 167.504 33.2136 167.504C33.5602 167.504 33.8722 167.581 34.1496 167.736C34.4322 167.891 34.6562 168.104 34.8216 168.376C34.9869 168.648 35.0696 168.96 35.0696 169.312C35.0696 169.691 34.9789 170.019 34.7976 170.296C34.6216 170.579 34.3842 170.797 34.0856 170.952C33.7869 171.112 33.4562 171.192 33.0936 171.192ZM35.8769 170V169.216H36.3489V170H35.8769ZM29.9517 179.08C29.5517 179.08 29.1944 178.981 28.8797 178.784C28.5704 178.587 28.3277 178.325 28.1517 178C27.9757 177.669 27.8877 177.312 27.8877 176.928C27.8877 176.539 27.9757 176.181 28.1517 175.856C28.333 175.525 28.5784 175.261 28.8877 175.064C29.2024 174.861 29.557 174.76 29.9517 174.76C30.3517 174.76 30.7064 174.861 31.0157 175.064C31.3304 175.261 31.5757 175.525 31.7517 175.856C31.933 176.181 32.0237 176.539 32.0237 176.928C32.0237 177.312 31.9357 177.669 31.7597 178C31.5837 178.325 31.3384 178.587 31.0237 178.784C30.7144 178.981 30.357 179.08 29.9517 179.08ZM28.4397 176.936C28.4397 177.245 28.5064 177.528 28.6397 177.784C28.7784 178.035 28.9624 178.235 29.1917 178.384C29.421 178.528 29.6744 178.6 29.9517 178.6C30.229 178.6 30.4824 178.525 30.7117 178.376C30.941 178.227 31.125 178.024 31.2637 177.768C31.4024 177.512 31.4717 177.229 31.4717 176.92C31.4717 176.611 31.4024 176.328 31.2637 176.072C31.125 175.816 30.941 175.613 30.7117 175.464C30.4824 175.315 30.229 175.24 29.9517 175.24C29.6797 175.24 29.429 175.317 29.1997 175.472C28.9704 175.621 28.7864 175.824 28.6477 176.08C28.509 176.336 28.4397 176.621 28.4397 176.936ZM34.7415 179.08C34.3362 179.08 33.9762 178.981 33.6615 178.784C33.3468 178.581 33.0988 178.317 32.9175 177.992C32.7362 177.661 32.6455 177.299 32.6455 176.904C32.6455 176.509 32.7335 176.152 32.9095 175.832C33.0855 175.507 33.3308 175.248 33.6455 175.056C33.9602 174.859 34.3228 174.76 34.7335 174.76C35.1228 174.76 35.4642 174.851 35.7575 175.032C36.0562 175.208 36.2802 175.448 36.4295 175.752L35.9015 175.92C35.7842 175.707 35.6188 175.541 35.4055 175.424C35.1975 175.301 34.9655 175.24 34.7095 175.24C34.4268 175.24 34.1708 175.312 33.9415 175.456C33.7175 175.6 33.5362 175.8 33.3975 176.056C33.2642 176.307 33.1975 176.589 33.1975 176.904C33.1975 177.219 33.2668 177.504 33.4055 177.76C33.5442 178.016 33.7282 178.221 33.9575 178.376C34.1868 178.525 34.4402 178.6 34.7175 178.6C34.8988 178.6 35.0748 178.568 35.2455 178.504C35.4162 178.44 35.5628 178.355 35.6855 178.248C35.8082 178.136 35.8908 178.016 35.9335 177.888L36.4695 178.048C36.3948 178.245 36.2722 178.424 36.1015 178.584C35.9308 178.739 35.7282 178.861 35.4935 178.952C35.2588 179.037 35.0082 179.08 34.7415 179.08ZM39.3241 178.8C39.2601 178.827 39.1428 178.875 38.9721 178.944C38.8015 179.013 38.6041 179.048 38.3801 179.048C38.1455 179.048 37.9401 178.981 37.7641 178.848C37.5881 178.715 37.5001 178.515 37.5001 178.248V175.264H36.9241V174.832H37.5001V173.424H38.0441V174.832H39.0041V175.264H38.0441V178.096C38.0548 178.251 38.1081 178.365 38.2041 178.44C38.3055 178.509 38.4201 178.544 38.5481 178.544C38.6975 178.544 38.8308 178.52 38.9481 178.472C39.0708 178.419 39.1481 178.381 39.1801 178.36L39.3241 178.8Z" fill="#6A6DD0"/>
<path d="M94.4604 169.504V170H91.7484V169.504H92.8844V166.08C92.8257 166.16 92.7191 166.251 92.5644 166.352C92.4097 166.453 92.2417 166.541 92.0604 166.616C91.8791 166.685 91.7191 166.72 91.5804 166.72V166.192C91.7031 166.192 91.8364 166.157 91.9804 166.088C92.1297 166.019 92.2684 165.939 92.3964 165.848C92.5297 165.752 92.6417 165.664 92.7324 165.584C92.8231 165.504 92.8737 165.453 92.8844 165.432H93.4444V169.504H94.4604ZM99.1063 168.128C99.1063 168.491 99.0156 168.819 98.8343 169.112C98.6583 169.405 98.4183 169.64 98.1143 169.816C97.8103 169.992 97.4689 170.08 97.0903 170.08C96.6956 170.08 96.3436 169.987 96.0343 169.8C95.7303 169.608 95.4903 169.333 95.3143 168.976C95.1383 168.619 95.0503 168.195 95.0503 167.704C95.0503 166.931 95.1383 166.291 95.3143 165.784C95.4903 165.277 95.7356 164.901 96.0503 164.656C96.3649 164.405 96.7303 164.28 97.1463 164.28C97.5196 164.28 97.8556 164.376 98.1543 164.568C98.4583 164.755 98.6876 165.011 98.8423 165.336L98.4903 165.656C98.3783 165.384 98.1996 165.168 97.9543 165.008C97.7143 164.843 97.4449 164.76 97.1463 164.76C96.6769 164.76 96.2983 164.979 96.0103 165.416C95.7276 165.848 95.5836 166.456 95.5783 167.24C95.6956 166.931 95.8983 166.683 96.1863 166.496C96.4743 166.304 96.7969 166.208 97.1543 166.208C97.5169 166.208 97.8449 166.293 98.1383 166.464C98.4369 166.635 98.6716 166.867 98.8423 167.16C99.0183 167.448 99.1063 167.771 99.1063 168.128ZM97.1063 169.6C97.3729 169.6 97.6183 169.536 97.8423 169.408C98.0663 169.275 98.2449 169.096 98.3783 168.872C98.5169 168.648 98.5863 168.4 98.5863 168.128C98.5863 167.861 98.5169 167.616 98.3783 167.392C98.2449 167.168 98.0663 166.989 97.8423 166.856C97.6183 166.723 97.3703 166.656 97.0983 166.656C96.8263 166.656 96.5783 166.723 96.3543 166.856C96.1303 166.989 95.9516 167.168 95.8183 167.392C95.6849 167.616 95.6183 167.861 95.6183 168.128C95.6183 168.395 95.6849 168.64 95.8183 168.864C95.9569 169.088 96.1383 169.267 96.3623 169.4C96.5863 169.533 96.8343 169.6 97.1063 169.6Z" fill="#6A6DD0"/>
<path d="M154.915 169.504V170H152.203V169.504H153.339V166.08C153.28 166.16 153.174 166.251 153.019 166.352C152.864 166.453 152.696 166.541 152.515 166.616C152.334 166.685 152.174 166.72 152.035 166.72V166.192C152.158 166.192 152.291 166.157 152.435 166.088C152.584 166.019 152.723 165.939 152.851 165.848C152.984 165.752 153.096 165.664 153.187 165.584C153.278 165.504 153.328 165.453 153.339 165.432H153.899V169.504H154.915ZM158.386 165.84H155.322V165.336H159.25L156.378 171.016H155.754L158.386 165.84Z" fill="#6A6DD0"/>
<path d="M216.43 169.504V170H213.718V169.504H214.854V166.08C214.795 166.16 214.689 166.251 214.534 166.352C214.379 166.453 214.211 166.541 214.03 166.616C213.849 166.685 213.689 166.72 213.55 166.72V166.192C213.673 166.192 213.806 166.157 213.95 166.088C214.099 166.019 214.238 165.939 214.366 165.848C214.499 165.752 214.611 165.664 214.702 165.584C214.793 165.504 214.843 165.453 214.854 165.432H215.414V169.504H216.43ZM220.948 168.424C220.948 168.755 220.855 169.043 220.668 169.288C220.487 169.533 220.244 169.725 219.94 169.864C219.641 169.997 219.313 170.064 218.956 170.064C218.577 170.064 218.241 169.989 217.948 169.84C217.655 169.685 217.423 169.483 217.252 169.232C217.087 168.981 217.004 168.701 217.004 168.392C217.004 168.152 217.06 167.936 217.172 167.744C217.284 167.552 217.428 167.389 217.604 167.256C217.78 167.123 217.959 167.024 218.14 166.96C217.889 166.859 217.671 166.707 217.484 166.504C217.297 166.296 217.204 166.051 217.204 165.768C217.204 165.533 217.255 165.328 217.356 165.152C217.463 164.971 217.601 164.819 217.772 164.696C217.948 164.573 218.14 164.48 218.348 164.416C218.556 164.352 218.767 164.32 218.98 164.32C219.263 164.32 219.54 164.376 219.812 164.488C220.084 164.595 220.308 164.757 220.484 164.976C220.665 165.189 220.756 165.451 220.756 165.76C220.756 166.043 220.66 166.288 220.468 166.496C220.281 166.704 220.06 166.859 219.804 166.96C220.113 167.067 220.38 167.248 220.604 167.504C220.833 167.76 220.948 168.067 220.948 168.424ZM217.748 165.792C217.748 166 217.812 166.176 217.94 166.32C218.068 166.464 218.225 166.573 218.412 166.648C218.599 166.723 218.785 166.76 218.972 166.76C219.164 166.76 219.353 166.723 219.54 166.648C219.727 166.568 219.884 166.456 220.012 166.312C220.14 166.163 220.204 165.984 220.204 165.776C220.204 165.573 220.145 165.4 220.028 165.256C219.911 165.112 219.756 165.003 219.564 164.928C219.377 164.853 219.177 164.816 218.964 164.816C218.756 164.816 218.559 164.856 218.372 164.936C218.191 165.011 218.041 165.123 217.924 165.272C217.807 165.416 217.748 165.589 217.748 165.792ZM220.396 168.384C220.396 168.133 220.324 167.92 220.18 167.744C220.036 167.563 219.852 167.427 219.628 167.336C219.409 167.24 219.188 167.192 218.964 167.192C218.735 167.192 218.511 167.243 218.292 167.344C218.079 167.44 217.903 167.579 217.764 167.76C217.631 167.941 217.564 168.152 217.564 168.392C217.564 168.637 217.636 168.851 217.78 169.032C217.924 169.208 218.105 169.344 218.324 169.44C218.543 169.531 218.764 169.576 218.988 169.576C219.217 169.576 219.439 169.528 219.652 169.432C219.871 169.331 220.049 169.192 220.188 169.016C220.327 168.835 220.396 168.624 220.396 168.384Z" fill="#6A6DD0"/>
<path d="M277.945 169.504V170H275.233V169.504H276.369V166.08C276.311 166.16 276.204 166.251 276.049 166.352C275.895 166.453 275.727 166.541 275.545 166.616C275.364 166.685 275.204 166.72 275.065 166.72V166.192C275.188 166.192 275.321 166.157 275.465 166.088C275.615 166.019 275.753 165.939 275.881 165.848C276.015 165.752 276.127 165.664 276.217 165.584C276.308 165.504 276.359 165.453 276.369 165.432H276.929V169.504H277.945ZM278.407 167.384C278.407 167.021 278.495 166.693 278.671 166.4C278.852 166.107 279.095 165.872 279.399 165.696C279.703 165.52 280.044 165.432 280.423 165.432C280.823 165.432 281.175 165.528 281.479 165.72C281.788 165.907 282.028 166.179 282.199 166.536C282.375 166.893 282.463 167.317 282.463 167.808C282.463 168.581 282.375 169.221 282.199 169.728C282.023 170.235 281.778 170.611 281.463 170.856C281.148 171.107 280.783 171.232 280.367 171.232C279.994 171.232 279.658 171.136 279.359 170.944C279.06 170.757 278.831 170.501 278.671 170.176L279.023 169.856C279.135 170.128 279.311 170.344 279.551 170.504C279.796 170.669 280.068 170.752 280.367 170.752C280.842 170.752 281.22 170.533 281.503 170.096C281.791 169.664 281.938 169.056 281.943 168.272C281.826 168.581 281.623 168.832 281.335 169.024C281.047 169.211 280.722 169.304 280.359 169.304C279.996 169.304 279.668 169.219 279.375 169.048C279.082 168.877 278.847 168.648 278.671 168.36C278.495 168.067 278.407 167.741 278.407 167.384ZM280.415 165.912C280.143 165.912 279.895 165.979 279.671 166.112C279.447 166.24 279.266 166.416 279.127 166.64C278.994 166.864 278.927 167.112 278.927 167.384C278.927 167.651 278.994 167.896 279.127 168.12C279.266 168.344 279.447 168.523 279.671 168.656C279.9 168.789 280.148 168.856 280.415 168.856C280.687 168.856 280.935 168.789 281.159 168.656C281.383 168.523 281.562 168.344 281.695 168.12C281.828 167.896 281.895 167.651 281.895 167.384C281.895 167.117 281.828 166.872 281.695 166.648C281.562 166.424 281.38 166.245 281.151 166.112C280.927 165.979 280.682 165.912 280.415 165.912Z" fill="#6A6DD0"/>
<path d="M336.564 170C336.564 169.76 336.594 169.517 336.652 169.272C336.716 169.021 336.842 168.781 337.028 168.552C337.22 168.317 337.508 168.101 337.892 167.904C338.047 167.824 338.207 167.747 338.372 167.672C338.538 167.592 338.692 167.507 338.836 167.416C338.98 167.32 339.098 167.213 339.188 167.096C339.279 166.973 339.324 166.829 339.324 166.664C339.324 166.531 339.284 166.403 339.204 166.28C339.124 166.152 339.007 166.048 338.852 165.968C338.698 165.883 338.503 165.84 338.268 165.84C338.044 165.84 337.844 165.88 337.668 165.96C337.498 166.04 337.354 166.133 337.236 166.24C337.124 166.341 337.039 166.424 336.98 166.488L336.636 166.112C336.668 166.08 336.73 166.024 336.82 165.944C336.911 165.859 337.028 165.771 337.172 165.68C337.322 165.589 337.495 165.512 337.692 165.448C337.89 165.384 338.111 165.352 338.356 165.352C338.682 165.352 338.959 165.411 339.188 165.528C339.423 165.645 339.602 165.8 339.724 165.992C339.847 166.179 339.908 166.384 339.908 166.608C339.908 166.827 339.86 167.016 339.764 167.176C339.674 167.331 339.554 167.467 339.404 167.584C339.26 167.696 339.108 167.795 338.948 167.88C338.794 167.96 338.652 168.029 338.524 168.088C338.188 168.248 337.924 168.408 337.732 168.568C337.54 168.723 337.399 168.877 337.308 169.032C337.223 169.187 337.164 169.344 337.132 169.504H339.996V170H336.564ZM344.84 167.656C344.84 168.125 344.752 168.544 344.576 168.912C344.4 169.275 344.16 169.56 343.856 169.768C343.558 169.976 343.216 170.08 342.832 170.08C342.448 170.08 342.104 169.976 341.8 169.768C341.496 169.56 341.256 169.275 341.08 168.912C340.91 168.544 340.824 168.125 340.824 167.656C340.824 167.187 340.91 166.771 341.08 166.408C341.256 166.04 341.496 165.752 341.8 165.544C342.104 165.331 342.448 165.224 342.832 165.224C343.216 165.224 343.558 165.331 343.856 165.544C344.16 165.752 344.4 166.04 344.576 166.408C344.752 166.771 344.84 167.187 344.84 167.656ZM344.288 167.656C344.288 167.277 344.227 166.944 344.104 166.656C343.982 166.363 343.811 166.136 343.592 165.976C343.374 165.816 343.12 165.736 342.832 165.736C342.544 165.736 342.291 165.816 342.072 165.976C341.854 166.136 341.68 166.363 341.552 166.656C341.43 166.944 341.368 167.277 341.368 167.656C341.368 168.035 341.43 168.368 341.552 168.656C341.68 168.944 341.854 169.168 342.072 169.328C342.291 169.488 342.544 169.568 342.832 169.568C343.12 169.568 343.374 169.488 343.592 169.328C343.811 169.168 343.982 168.944 344.104 168.656C344.227 168.368 344.288 168.035 344.288 167.656Z" fill="#6A6DD0"/>
<path d="M399.14 170C399.14 169.76 399.169 169.517 399.228 169.272C399.292 169.021 399.417 168.781 399.604 168.552C399.796 168.317 400.084 168.101 400.468 167.904C400.623 167.824 400.783 167.747 400.948 167.672C401.113 167.592 401.268 167.507 401.412 167.416C401.556 167.32 401.673 167.213 401.764 167.096C401.855 166.973 401.9 166.829 401.9 166.664C401.9 166.531 401.86 166.403 401.78 166.28C401.7 166.152 401.583 166.048 401.428 165.968C401.273 165.883 401.079 165.84 400.844 165.84C400.62 165.84 400.42 165.88 400.244 165.96C400.073 166.04 399.929 166.133 399.812 166.24C399.7 166.341 399.615 166.424 399.556 166.488L399.212 166.112C399.244 166.08 399.305 166.024 399.396 165.944C399.487 165.859 399.604 165.771 399.748 165.68C399.897 165.589 400.071 165.512 400.268 165.448C400.465 165.384 400.687 165.352 400.932 165.352C401.257 165.352 401.535 165.411 401.764 165.528C401.999 165.645 402.177 165.8 402.3 165.992C402.423 166.179 402.484 166.384 402.484 166.608C402.484 166.827 402.436 167.016 402.34 167.176C402.249 167.331 402.129 167.467 401.98 167.584C401.836 167.696 401.684 167.795 401.524 167.88C401.369 167.96 401.228 168.029 401.1 168.088C400.764 168.248 400.5 168.408 400.308 168.568C400.116 168.723 399.975 168.877 399.884 169.032C399.799 169.187 399.74 169.344 399.708 169.504H402.572V170H399.14ZM406.208 169.504V170H403.496V169.504H404.632V166.08C404.573 166.16 404.467 166.251 404.312 166.352C404.157 166.453 403.989 166.541 403.808 166.616C403.627 166.685 403.467 166.72 403.328 166.72V166.192C403.451 166.192 403.584 166.157 403.728 166.088C403.877 166.019 404.016 165.939 404.144 165.848C404.277 165.752 404.389 165.664 404.48 165.584C404.571 165.504 404.621 165.453 404.632 165.432H405.192V169.504H406.208Z" fill="#6A6DD0"/>
<path d="M460.655 170C460.655 169.76 460.685 169.517 460.743 169.272C460.807 169.021 460.933 168.781 461.119 168.552C461.311 168.317 461.599 168.101 461.983 167.904C462.138 167.824 462.298 167.747 462.463 167.672C462.629 167.592 462.783 167.507 462.927 167.416C463.071 167.32 463.189 167.213 463.279 167.096C463.37 166.973 463.415 166.829 463.415 166.664C463.415 166.531 463.375 166.403 463.295 166.28C463.215 166.152 463.098 166.048 462.943 165.968C462.789 165.883 462.594 165.84 462.359 165.84C462.135 165.84 461.935 165.88 461.759 165.96C461.589 166.04 461.445 166.133 461.327 166.24C461.215 166.341 461.13 166.424 461.071 166.488L460.727 166.112C460.759 166.08 460.821 166.024 460.911 165.944C461.002 165.859 461.119 165.771 461.263 165.68C461.413 165.589 461.586 165.512 461.783 165.448C461.981 165.384 462.202 165.352 462.447 165.352C462.773 165.352 463.05 165.411 463.279 165.528C463.514 165.645 463.693 165.8 463.815 165.992C463.938 166.179 463.999 166.384 463.999 166.608C463.999 166.827 463.951 167.016 463.855 167.176C463.765 167.331 463.645 167.467 463.495 167.584C463.351 167.696 463.199 167.795 463.039 167.88C462.885 167.96 462.743 168.029 462.615 168.088C462.279 168.248 462.015 168.408 461.823 168.568C461.631 168.723 461.49 168.877 461.399 169.032C461.314 169.187 461.255 169.344 461.223 169.504H464.087V170H460.655ZM464.827 170C464.827 169.76 464.856 169.517 464.915 169.272C464.979 169.021 465.104 168.781 465.291 168.552C465.483 168.317 465.771 168.101 466.155 167.904C466.31 167.824 466.47 167.747 466.635 167.672C466.8 167.592 466.955 167.507 467.099 167.416C467.243 167.32 467.36 167.213 467.451 167.096C467.542 166.973 467.587 166.829 467.587 166.664C467.587 166.531 467.547 166.403 467.467 166.28C467.387 166.152 467.27 166.048 467.115 165.968C466.96 165.883 466.766 165.84 466.531 165.84C466.307 165.84 466.107 165.88 465.931 165.96C465.76 166.04 465.616 166.133 465.499 166.24C465.387 166.341 465.302 166.424 465.243 166.488L464.899 166.112C464.931 166.08 464.992 166.024 465.083 165.944C465.174 165.859 465.291 165.771 465.435 165.68C465.584 165.589 465.758 165.512 465.955 165.448C466.152 165.384 466.374 165.352 466.619 165.352C466.944 165.352 467.222 165.411 467.451 165.528C467.686 165.645 467.864 165.8 467.987 165.992C468.11 166.179 468.171 166.384 468.171 166.608C468.171 166.827 468.123 167.016 468.027 167.176C467.936 167.331 467.816 167.467 467.667 167.584C467.523 167.696 467.371 167.795 467.211 167.88C467.056 167.96 466.915 168.029 466.787 168.088C466.451 168.248 466.187 168.408 465.995 168.568C465.803 168.723 465.662 168.877 465.571 169.032C465.486 169.187 465.427 169.344 465.395 169.504H468.259V170H464.827Z" fill="#6A6DD0"/>
<line x1="95.7046" y1="155" x2="95.7046" y2="163" stroke="#6A6DD0" stroke-width="0.5"/>
<line x1="156.159" y1="155" x2="156.159" y2="163" stroke="#6A6DD0" stroke-width="0.5"/>
<line x1="217.674" y1="155" x2="217.674" y2="163" stroke="#6A6DD0" stroke-width="0.5"/>
<line x1="279.189" y1="155" x2="279.189" y2="163" stroke="#6A6DD0" stroke-width="0.5"/>
<line x1="340.705" y1="155" x2="340.705" y2="163" stroke="#6A6DD0" stroke-width="0.5"/>
<line x1="403.28" y1="155" x2="403.28" y2="163" stroke="#6A6DD0" stroke-width="0.5"/>
<line x1="464.795" y1="155" x2="464.795" y2="163" stroke="#6A6DD0" stroke-width="0.5"/>
<line x1="29.6973" y1="57.25" x2="21.2124" y2="57.25" stroke="#6A6DD0" stroke-width="0.5"/>
<line x1="29.6973" y1="8.25" x2="21.2124" y2="8.25" stroke="#6A6DD0" stroke-width="0.5"/>
<line x1="29.6973" y1="106.25" x2="21.2124" y2="106.25" stroke="#6A6DD0" stroke-width="0.5"/>
<path d="M12.7934 59.504V60H10.0814V59.504H11.2174V56.08C11.1587 56.16 11.0521 56.2507 10.8974 56.352C10.7427 56.4533 10.5747 56.5413 10.3934 56.616C10.2121 56.6853 10.0521 56.72 9.91341 56.72V56.192C10.0361 56.192 10.1694 56.1573 10.3134 56.088C10.4627 56.0187 10.6014 55.9387 10.7294 55.848C10.8627 55.752 10.9747 55.664 11.0654 55.584C11.1561 55.504 11.2067 55.4533 11.2174 55.432H11.7774V59.504H12.7934ZM18.7113 60V55.376L16.6553 58.968H16.3033L14.2393 55.376V60H13.6793V54.32H14.2553L16.4713 58.208L18.7033 54.32H19.2713V60H18.7113Z" fill="#6A6DD0"/>
<path d="M7.248 10.504V11H4.536V10.504H5.672V7.08C5.61333 7.16 5.50667 7.25067 5.352 7.352C5.19733 7.45333 5.02933 7.54133 4.848 7.616C4.66667 7.68533 4.50667 7.72 4.368 7.72V7.192C4.49067 7.192 4.624 7.15733 4.768 7.088C4.91733 7.01867 5.056 6.93867 5.184 6.848C5.31733 6.752 5.42933 6.664 5.52 6.584C5.61067 6.504 5.66133 6.45333 5.672 6.432H6.232V10.504H7.248ZM8.10988 11.648L8.24588 10.976H8.06188V10.216H8.58988V10.976L8.38988 11.648H8.10988ZM11.3148 12.192C10.9148 12.192 10.5521 12.0907 10.2268 11.888C9.90142 11.6907 9.65875 11.4293 9.49875 11.104L9.85875 10.832C10.0081 11.0933 10.2108 11.304 10.4668 11.464C10.7281 11.624 11.0134 11.704 11.3228 11.704C11.5894 11.704 11.8268 11.6453 12.0348 11.528C12.2481 11.4107 12.4161 11.248 12.5388 11.04C12.6668 10.832 12.7308 10.592 12.7308 10.32C12.7308 10.0587 12.6694 9.82933 12.5468 9.632C12.4294 9.42933 12.2668 9.272 12.0588 9.16C11.8561 9.048 11.6268 8.992 11.3708 8.992C11.1254 8.992 10.8908 9.048 10.6668 9.16C10.4428 9.26667 10.2614 9.424 10.1228 9.632H9.61875L10.2508 6.432H12.9948V6.936H10.6588L10.2668 8.976C10.4054 8.82667 10.5761 8.712 10.7788 8.632C10.9814 8.54667 11.2001 8.504 11.4348 8.504C11.7814 8.504 12.0934 8.58133 12.3708 8.736C12.6534 8.89067 12.8774 9.104 13.0428 9.376C13.2081 9.648 13.2908 9.96 13.2908 10.312C13.2908 10.6907 13.2001 11.0187 13.0188 11.296C12.8428 11.5787 12.6054 11.7973 12.3068 11.952C12.0081 12.112 11.6774 12.192 11.3148 12.192ZM19.3221 11V6.376L17.2661 9.968H16.9141L14.8501 6.376V11H14.2901V5.32H14.8661L17.0821 9.208L19.3141 5.32H19.8821V11H19.3221Z" fill="#6A6DD0"/>
<path d="M4.01125 110.192C3.61125 110.192 3.24858 110.091 2.92325 109.888C2.59791 109.691 2.35525 109.429 2.19525 109.104L2.55525 108.832C2.70458 109.093 2.90725 109.304 3.16325 109.464C3.42458 109.624 3.70991 109.704 4.01925 109.704C4.28591 109.704 4.52325 109.645 4.73125 109.528C4.94458 109.411 5.11258 109.248 5.23525 109.04C5.36325 108.832 5.42725 108.592 5.42725 108.32C5.42725 108.059 5.36591 107.829 5.24325 107.632C5.12591 107.429 4.96325 107.272 4.75525 107.16C4.55258 107.048 4.32325 106.992 4.06725 106.992C3.82191 106.992 3.58725 107.048 3.36325 107.16C3.13925 107.267 2.95791 107.424 2.81925 107.632H2.31525L2.94725 104.432H5.69125V104.936H3.35525L2.96325 106.976C3.10191 106.827 3.27258 106.712 3.47525 106.632C3.67791 106.547 3.89658 106.504 4.13125 106.504C4.47791 106.504 4.78991 106.581 5.06725 106.736C5.34991 106.891 5.57391 107.104 5.73925 107.376C5.90458 107.648 5.98725 107.96 5.98725 108.312C5.98725 108.691 5.89658 109.019 5.71525 109.296C5.53925 109.579 5.30191 109.797 5.00325 109.952C4.70458 110.112 4.37391 110.192 4.01125 110.192ZM10.7306 106.656C10.7306 107.125 10.6426 107.544 10.4666 107.912C10.2906 108.275 10.0506 108.56 9.74662 108.768C9.44796 108.976 9.10662 109.08 8.72262 109.08C8.33862 109.08 7.99462 108.976 7.69062 108.768C7.38662 108.56 7.14662 108.275 6.97062 107.912C6.79996 107.544 6.71462 107.125 6.71462 106.656C6.71462 106.187 6.79996 105.771 6.97062 105.408C7.14662 105.04 7.38662 104.752 7.69062 104.544C7.99462 104.331 8.33862 104.224 8.72262 104.224C9.10662 104.224 9.44796 104.331 9.74662 104.544C10.0506 104.752 10.2906 105.04 10.4666 105.408C10.6426 105.771 10.7306 106.187 10.7306 106.656ZM10.1786 106.656C10.1786 106.277 10.1173 105.944 9.99462 105.656C9.87196 105.363 9.70129 105.136 9.48262 104.976C9.26396 104.816 9.01062 104.736 8.72262 104.736C8.43462 104.736 8.18129 104.816 7.96262 104.976C7.74396 105.136 7.57062 105.363 7.44262 105.656C7.31996 105.944 7.25862 106.277 7.25862 106.656C7.25862 107.035 7.31996 107.368 7.44262 107.656C7.57062 107.944 7.74396 108.168 7.96262 108.328C8.18129 108.488 8.43462 108.568 8.72262 108.568C9.01062 108.568 9.26396 108.488 9.48262 108.328C9.70129 108.168 9.87196 107.944 9.99462 107.656C10.1173 107.368 10.1786 107.035 10.1786 106.656ZM15.6291 106.656C15.6291 107.125 15.5411 107.544 15.3651 107.912C15.1891 108.275 14.9491 108.56 14.6451 108.768C14.3464 108.976 14.0051 109.08 13.6211 109.08C13.2371 109.08 12.8931 108.976 12.5891 108.768C12.2851 108.56 12.0451 108.275 11.8691 107.912C11.6984 107.544 11.6131 107.125 11.6131 106.656C11.6131 106.187 11.6984 105.771 11.8691 105.408C12.0451 105.04 12.2851 104.752 12.5891 104.544C12.8931 104.331 13.2371 104.224 13.6211 104.224C14.0051 104.224 14.3464 104.331 14.6451 104.544C14.9491 104.752 15.1891 105.04 15.3651 105.408C15.5411 105.771 15.6291 106.187 15.6291 106.656ZM15.0771 106.656C15.0771 106.277 15.0157 105.944 14.8931 105.656C14.7704 105.363 14.5997 105.136 14.3811 104.976C14.1624 104.816 13.9091 104.736 13.6211 104.736C13.3331 104.736 13.0797 104.816 12.8611 104.976C12.6424 105.136 12.4691 105.363 12.3411 105.656C12.2184 105.944 12.1571 106.277 12.1571 106.656C12.1571 107.035 12.2184 107.368 12.3411 107.656C12.4691 107.944 12.6424 108.168 12.8611 108.328C13.0797 108.488 13.3331 108.568 13.6211 108.568C13.9091 108.568 14.1624 108.488 14.3811 108.328C14.5997 108.168 14.7704 107.944 14.8931 107.656C15.0157 107.368 15.0771 107.035 15.0771 106.656ZM16.7835 109V103.328H17.3435V106.624L20.4715 103.32H21.0875L18.7675 105.816L21.2075 109H20.5755L18.4075 106.152L17.3435 107.256V109H16.7835Z" fill="#6A6DD0"/>
<line x1="29" y1="105.5" x2="487" y2="105.5" stroke="#4549C4" stroke-dasharray="2 2"/>
<line x1="29" y1="57.5" x2="487" y2="57.5" stroke="#4549C4" stroke-dasharray="2 2"/>
<line x1="29" y1="8.5" x2="487" y2="8.5" stroke="#4549C4" stroke-dasharray="2 2"/>
<defs>
<linearGradient id="paint0_linear" x1="258.788" y1="1" x2="258.788" y2="1" gradientUnits="userSpaceOnUse">
<stop stop-color="#4549C4" stop-opacity="0.4"/>
<stop offset="1" stop-color="#4549C4" stop-opacity="0.12"/>
</linearGradient>
</defs>
</svg>
