<svg width="56" height="56" viewBox="0 0 56 56" fill="none" xmlns="http://www.w3.org/2000/svg">
<g clip-path="url(#clip0)">
<path d="M4.03878 0H51.9612C54.1919 0 56 1.80808 56 4.03878V51.9612C56 54.1919 54.1919 56 51.9612 56H4.03878C1.80808 56 0 54.1919 0 51.9612V4.03878C0 1.80808 1.80808 0 4.03878 0Z" fill="#B5B6E7"/>
<path d="M3.50006 3.81052C-0.900609 8.38152 5.804e-05 13.2372 5.804e-05 27.9885C5.804e-05 40.2385 -2.13728 52.5189 9.04873 55.4099C12.5417 56.3082 43.4911 56.3082 46.9794 55.4052C51.6367 54.2035 55.4261 50.4259 55.9441 43.8389C56.0164 42.9195 56.0164 13.0739 55.9417 12.1359C55.3911 5.11952 51.0721 1.07586 45.3811 0.256856C44.0767 0.0678563 43.8154 0.0118563 37.1234 0.00018964C13.3864 0.0118563 8.18306 -1.04514 3.50006 3.81052Z" fill="#B5B6E7"/>
<path d="M27.9953 7.32464C19.523 7.32464 11.4776 6.57098 8.40464 14.4576C7.13531 17.715 7.31964 21.9453 7.31964 28.0026C7.31964 33.318 7.14931 38.3136 8.40464 41.5453C11.4706 49.4366 19.5813 48.6806 27.9906 48.6806C36.1036 48.6806 44.4686 49.5253 47.579 41.5453C48.8506 38.2553 48.664 34.088 48.664 28.0026C48.664 19.9246 49.1096 14.7096 45.192 10.7943C41.2253 6.82764 35.861 7.32464 27.986 7.32464H27.9953ZM26.1426 11.051C43.8153 11.023 46.0646 9.05831 44.8233 36.3513C44.3823 46.0043 37.0323 44.945 27.9976 44.945C11.5243 44.945 11.0506 44.4736 11.0506 27.9933C11.0506 11.3216 12.3573 11.0603 26.1426 11.0463V11.051ZM39.032 14.4833C37.6623 14.4833 36.5516 15.594 36.5516 16.9636C36.5516 18.3333 37.6623 19.444 39.032 19.444C40.4016 19.444 41.5123 18.3333 41.5123 16.9636C41.5123 15.594 40.4016 14.4833 39.032 14.4833ZM27.9953 17.3836C22.1316 17.3836 17.3786 22.139 17.3786 28.0026C17.3786 33.8663 22.1316 38.6193 27.9953 38.6193C33.859 38.6193 38.6096 33.8663 38.6096 28.0026C38.6096 22.139 33.859 17.3836 27.9953 17.3836ZM27.9953 21.11C37.107 21.11 37.1186 34.8953 27.9953 34.8953C18.886 34.8953 18.872 21.11 27.9953 21.11Z" fill="white"/>
</g>
<defs>
<clipPath id="clip0">
<rect width="56" height="56" fill="white"/>
</clipPath>
</defs>
</svg>
