<svg width="66" height="66" viewBox="0 0 66 66" fill="none" xmlns="http://www.w3.org/2000/svg">
<g clip-path="url(#clip0)">
<path d="M39.8778 30.97V27.8916C39.8642 27.3047 39.3941 26.8302 38.8072 26.8122C38.3032 25.2468 36.8414 24.1903 35.1975 24.2034H34.153V6.94277C35.131 6.61715 35.9213 5.88518 36.3211 4.9345H45.5699L40.8553 17.5732C40.4336 17.7439 40.1577 18.153 40.1577 18.6079C40.1577 22.3271 43.0059 24.925 47.0862 24.925C51.1901 24.925 54.0563 22.3271 54.0563 18.6079C54.0563 18.1732 53.8037 17.7783 53.4089 17.5955L48.1744 3.56274C48.1706 3.55129 48.1651 3.54093 48.1607 3.53002C48.1526 3.51093 48.1449 3.49238 48.1362 3.47438C48.1275 3.45639 48.1198 3.44166 48.1111 3.42584C48.1024 3.40948 48.0942 3.39421 48.0855 3.37893C48.0762 3.36421 48.0642 3.34566 48.0533 3.32985C48.044 3.31566 48.0347 3.30148 48.0255 3.28894C48.0135 3.27312 48.0015 3.25785 47.9889 3.24258C47.978 3.22949 47.9671 3.21694 47.9562 3.2044C47.9447 3.19185 47.9306 3.17658 47.9169 3.16404C47.9038 3.15149 47.8913 3.1384 47.8782 3.1264C47.8744 3.12258 47.8706 3.11876 47.8662 3.11495C47.6546 2.85314 47.3355 2.70042 46.999 2.70042H36.4907C36.0958 1.11377 34.6712 0 33.036 0C31.4008 0 29.9756 1.11377 29.5807 2.70042H19.073C18.7359 2.70042 18.4168 2.85259 18.2052 3.1144C18.2009 3.11822 18.197 3.12258 18.1927 3.1264C18.1796 3.1384 18.167 3.1504 18.1545 3.16294C18.1419 3.17549 18.1278 3.19022 18.1152 3.20385C18.1027 3.21803 18.0934 3.22894 18.083 3.24203C18.0699 3.2573 18.0579 3.27258 18.0459 3.28894C18.0361 3.30203 18.0269 3.31512 18.0181 3.32875C18.0067 3.34512 17.9963 3.36148 17.986 3.37893C17.9756 3.39584 17.9685 3.40948 17.9598 3.4253C17.9516 3.44057 17.9429 3.45748 17.9347 3.47384C17.927 3.49075 17.9183 3.51093 17.9107 3.53002C17.9063 3.54093 17.9009 3.55129 17.8965 3.56274L12.662 17.5955C12.2677 17.7783 12.0151 18.1732 12.0151 18.6079C12.0151 22.3271 14.8634 24.925 18.9432 24.925C23.0475 24.925 25.9138 22.3271 25.9138 18.6079C25.9132 18.153 25.6378 17.7439 25.2167 17.5732L20.5015 4.9345H29.7503C30.1501 5.88518 30.9404 6.61715 31.9189 6.94277V24.2034H30.8739C29.23 24.1903 27.7682 25.2468 27.2642 26.8122C26.6774 26.8302 26.2072 27.3047 26.1941 27.8916V30.97C26.1941 31.5869 26.7385 32.0227 27.3559 32.0227H38.7155C39.333 32.0227 39.8778 31.5869 39.8778 30.97ZM47.0868 22.7013C45.2132 22.7013 43.0686 21.8297 42.5232 19.7353H51.6831C51.1415 21.8297 49.1065 22.7013 47.0868 22.7013ZM47.1282 7.15985L50.9861 17.5012H43.2704L47.1282 7.15985ZM18.9432 22.7013C17.0702 22.7013 14.9255 21.8297 14.3801 19.7353H23.5395C22.9984 21.8297 20.9629 22.7013 18.9432 22.7013ZM22.801 17.5012H15.0854L18.9432 7.15985L22.801 17.5012ZM31.7095 3.5622C31.7073 2.85041 32.2669 2.26408 32.9782 2.23353C33.6889 2.20244 34.2976 2.73751 34.3576 3.44657C34.315 3.56547 34.2927 3.69092 34.2927 3.81746C34.2927 3.86437 34.2959 3.91182 34.3019 3.95818C34.1072 4.58433 33.4838 4.97377 32.8353 4.87505C32.1867 4.77578 31.7084 4.2178 31.7095 3.5622ZM30.8739 26.4375H35.1975C35.5575 26.4484 35.9104 26.5439 36.2267 26.7168H29.8447C30.161 26.5439 30.5139 26.4484 30.8739 26.4375ZM37.6438 29.7886H28.4282V28.9508H37.6438V29.7886Z" fill="#ECEDF9"/>
<path d="M63.0724 21.629C62.9802 21.0449 62.449 20.6342 61.8605 20.6925C59.4879 20.9211 57.713 22.973 57.8281 25.3538L57.9961 32.2447C56.1171 32.482 54.4874 33.6596 53.6719 35.3689L51.1002 40.7698C50.7103 41.5852 50.1425 42.3024 49.4383 42.8686L48.9038 43.2973C46.2181 45.4403 44.6854 48.7134 44.7591 52.1485L43.9491 51.7624C43.3922 51.4973 42.7257 51.7335 42.4606 52.2909L39.6402 58.2126C39.3746 58.77 39.6113 59.4366 40.1682 59.7016L53.1641 65.8912C53.721 66.1562 54.3875 65.9201 54.6532 65.3626L57.4736 59.4404C57.7387 58.8835 57.5025 58.217 56.9451 57.9519L56.4754 57.7283L56.344 55.9693C56.2916 55.2869 56.5065 54.6106 56.9434 54.0843L63.6735 45.9399C63.6893 45.9208 63.7046 45.9012 63.7193 45.881C65.1265 43.9158 65.8688 41.5519 65.8372 39.1351C65.8361 39.0822 65.8312 39.0293 65.823 38.9775L63.0724 21.629ZM53.1156 63.3936L42.1367 58.1652L43.9966 54.2599L54.9755 59.4878L53.1156 63.3936ZM61.9254 44.5474L55.2204 52.6618C54.4148 53.6326 54.0188 54.8784 54.1154 56.1356L54.1514 56.6216L47.0935 53.2607C46.6119 50.1435 47.8358 47.0079 50.3006 45.0405L50.8352 44.6118C51.8022 43.8345 52.5822 42.85 53.1167 41.7303L55.6889 36.33C56.296 35.0591 57.6356 34.3064 59.0368 34.4488L55.372 42.1437C55.1959 42.5048 55.227 42.9324 55.4539 43.264C55.6802 43.5951 56.0675 43.7795 56.4678 43.7467C56.8676 43.7135 57.2194 43.4686 57.3885 43.1042L61.6167 34.2268C61.8823 33.6699 61.6456 33.0034 61.0887 32.7383C60.8132 32.6074 60.528 32.4994 60.2351 32.4154L60.0611 25.2861C60.0611 25.2763 60.0611 25.2665 60.06 25.2567C60.0186 24.4614 60.4036 23.7044 61.0701 23.2691L63.6031 39.2469C63.6113 41.1461 63.025 42.9995 61.9254 44.5474Z" fill="#ECEDF9"/>
<path d="M23.6121 52.2909C23.3471 51.7334 22.68 51.4973 22.1231 51.7624L21.3132 52.1485C21.3873 48.7134 19.8547 45.4403 17.1684 43.2973L16.6339 42.8691C15.9303 42.3024 15.362 41.5852 14.9725 40.7698L12.4003 35.3689C11.5849 33.659 9.95569 32.482 8.07614 32.2447L8.24467 25.3538C8.35976 22.973 6.58493 20.9211 4.21231 20.6925C3.6238 20.6342 3.09255 21.0454 3.00037 21.629L0.249226 38.978C0.241044 39.0304 0.236135 39.0828 0.23559 39.1357C0.203955 41.5525 0.946284 43.9164 2.35349 45.8815C2.36822 45.9017 2.38349 45.9219 2.39931 45.941L9.12936 54.0842C9.56625 54.6111 9.78115 55.2869 9.72879 55.9693L9.59734 57.7288L9.12718 57.9519C8.57029 58.2175 8.33358 58.884 8.5992 59.4409L11.4196 65.3632C11.6847 65.9201 12.3512 66.1568 12.9086 65.8917L25.9046 59.7016C26.4615 59.4365 26.6976 58.77 26.4326 58.2132L23.6121 52.2909ZM4.14632 44.5474C3.04728 42.9995 2.4604 41.1461 2.46912 39.2475L5.00155 23.2691C5.66807 23.7038 6.05314 24.4614 6.01169 25.2567C6.01169 25.2665 6.01059 25.2763 6.01059 25.2856L5.83606 32.4154C5.54316 32.4994 5.2579 32.6074 4.98246 32.7378C4.42558 33.0034 4.18886 33.6699 4.45449 34.2268L8.6832 43.1042C8.85228 43.468 9.20408 43.7135 9.60388 43.7462C10.0042 43.7795 10.3915 43.5951 10.6178 43.2635C10.8447 42.9324 10.8758 42.5048 10.6997 42.1437L7.03491 34.4488C8.43612 34.3059 9.77569 35.0586 10.3828 36.3294L12.955 41.7303C13.4895 42.8495 14.2695 43.8345 15.2365 44.6118L15.7711 45.0405C18.2358 47.0073 19.4598 50.1435 18.9782 53.2607L11.9203 56.6221L11.9563 56.1362C12.0529 54.8784 11.6569 53.6326 10.8513 52.6623L4.14632 44.5474ZM12.9572 63.3942L11.0962 59.4878L22.0751 54.2599L23.9345 58.1651L12.9572 63.3942Z" fill="#ECEDF9"/>
</g>
<defs>
<clipPath id="clip0">
<rect width="66" height="66" fill="white"/>
</clipPath>
</defs>
</svg>
