<svg width="113" height="38" viewBox="0 0 113 38" fill="none" xmlns="http://www.w3.org/2000/svg">
<path d="M45.308 29L53.484 9.12H55.556L63.704 29H61.016L58.664 23.176H50.32L47.996 29H45.308ZM54.52 12.032L50.824 21.216H58.104L54.52 12.032ZM78.5926 29H76.1286V20.824C76.1286 19.256 75.8859 18.1173 75.4006 17.408C74.9339 16.6987 74.2152 16.344 73.2446 16.344C72.7406 16.344 72.2366 16.4467 71.7326 16.652C71.2286 16.8387 70.7526 17.1 70.3046 17.436C69.8566 17.772 69.4646 18.1733 69.1286 18.64C68.7926 19.1067 68.5406 19.62 68.3726 20.18V29H65.9086V14.384H68.1486V17.52C68.7272 16.4933 69.5579 15.672 70.6406 15.056C71.7419 14.44 72.9366 14.132 74.2246 14.132C75.0646 14.132 75.7646 14.2907 76.3246 14.608C76.8846 14.9067 77.3326 15.336 77.6686 15.896C78.0046 16.4373 78.2379 17.0813 78.3686 17.828C78.5179 18.5747 78.5926 19.3867 78.5926 20.264V29ZM82.3148 29V14.384H84.7788V29H82.3148ZM82.3148 11.64V8.56H84.7788V11.64H82.3148ZM96.2192 28.272C96.0699 28.3467 95.8739 28.44 95.6312 28.552C95.3886 28.6453 95.1086 28.748 94.7912 28.86C94.4926 28.9533 94.1566 29.028 93.7832 29.084C93.4286 29.1587 93.0552 29.196 92.6632 29.196C91.7672 29.196 90.9926 28.9533 90.3392 28.468C89.6859 27.964 89.3592 27.1893 89.3592 26.144V16.316H87.3712V14.384H89.3592V9.512H91.8232V14.384H95.0992V16.316H91.8232V25.388C91.8606 25.9293 92.0379 26.3213 92.3552 26.564C92.6726 26.8067 93.0459 26.928 93.4752 26.928C93.9606 26.928 94.3992 26.8533 94.7912 26.704C95.2019 26.536 95.4819 26.4053 95.6312 26.312L96.2192 28.272ZM104.505 29.28C103.403 29.28 102.395 29.0747 101.481 28.664C100.585 28.2533 99.8101 27.7027 99.1568 27.012C98.5221 26.3213 98.0275 25.5187 97.6728 24.604C97.3181 23.6893 97.1408 22.728 97.1408 21.72C97.1408 20.6933 97.3181 19.7227 97.6728 18.808C98.0461 17.8933 98.5501 17.0907 99.1848 16.4C99.8381 15.7093 100.613 15.1587 101.509 14.748C102.423 14.3373 103.422 14.132 104.505 14.132C105.587 14.132 106.586 14.3373 107.501 14.748C108.415 15.1587 109.19 15.7093 109.825 16.4C110.478 17.0907 110.982 17.8933 111.337 18.808C111.71 19.7227 111.897 20.6933 111.897 21.72C111.897 22.728 111.719 23.6893 111.365 24.604C111.01 25.5187 110.506 26.3213 109.853 27.012C109.199 27.7027 108.415 28.2533 107.501 28.664C106.605 29.0747 105.606 29.28 104.505 29.28ZM99.6608 21.748C99.6608 22.5133 99.7821 23.2227 100.025 23.876C100.286 24.5293 100.631 25.0987 101.061 25.584C101.509 26.0693 102.022 26.452 102.601 26.732C103.198 27.012 103.833 27.152 104.505 27.152C105.177 27.152 105.802 27.012 106.381 26.732C106.978 26.452 107.501 26.0693 107.949 25.584C108.397 25.08 108.742 24.5013 108.985 23.848C109.246 23.176 109.377 22.4573 109.377 21.692C109.377 20.9453 109.246 20.2453 108.985 19.592C108.742 18.92 108.397 18.3413 107.949 17.856C107.501 17.352 106.978 16.96 106.381 16.68C105.802 16.4 105.177 16.26 104.505 16.26C103.833 16.26 103.198 16.4093 102.601 16.708C102.022 16.988 101.509 17.38 101.061 17.884C100.631 18.3693 100.286 18.948 100.025 19.62C99.7821 20.2733 99.6608 20.9827 99.6608 21.748Z" fill="#4549C4"/>
<g clip-path="url(#clip0)">
<path opacity="0.25" d="M15.4569 35.3701C23.9935 35.3701 30.9138 28.4468 30.9138 19.9066C30.9138 11.3664 23.9935 4.44312 15.4569 4.44312C6.92028 4.44312 0 11.3664 0 19.9066C0 28.4468 6.92028 35.3701 15.4569 35.3701Z" fill="#A3D5FF"/>
<path opacity="0.25" d="M15.457 30.8422C21.4939 30.8422 26.3878 25.9462 26.3878 19.9067C26.3878 13.8672 21.4939 8.97119 15.457 8.97119C9.42002 8.97119 4.52612 13.8672 4.52612 19.9067C4.52612 25.9462 9.42002 30.8422 15.457 30.8422Z" fill="#A3D5FF"/>
<path opacity="0.25" d="M15.4569 25.8016C18.7111 25.8016 21.3493 23.1623 21.3493 19.9066C21.3493 16.651 18.7111 14.0117 15.4569 14.0117C12.2026 14.0117 9.56445 16.651 9.56445 19.9066C9.56445 23.1623 12.2026 25.8016 15.4569 25.8016Z" fill="#A3D5FF"/>
<path d="M18.4917 4.15293L15.8418 17.05L30.9818 0L18.4917 4.15293Z" fill="#4549C4"/>
<path d="M2.46254 23.2175L1.49414 30.8117L10.2832 24.4153L2.46254 23.2175Z" fill="#4549C4"/>
<path d="M28.0659 17.7881L19.4348 20.1273L34.0001 21.5207L28.0659 17.7881Z" fill="#7681B3"/>
<path d="M24.9724 29.4668L24.8357 37.9999L13.7153 23.6616L24.9724 29.4668Z" fill="#56B5F0"/>
<path d="M3.39055 18.2665L10.4905 17.1763L1.07202 5.54883L3.39055 18.2665Z" fill="#56B5F0"/>
</g>
<defs>
<clipPath id="clip0">
<rect width="34" height="38" fill="white"/>
</clipPath>
</defs>
</svg>
