<svg width="83" height="91" viewBox="0 0 83 91" fill="none" xmlns="http://www.w3.org/2000/svg">
<g opacity="0.25" filter="url(#filter0_d)">
<path d="M35.8215 65.9199C47.8731 65.9199 57.643 56.1488 57.643 44.0956C57.643 32.0423 47.8731 22.2712 35.8215 22.2712C23.7698 22.2712 14 32.0423 14 44.0956C14 56.1488 23.7698 65.9199 35.8215 65.9199Z" fill="#A3D5FF"/>
</g>
<path opacity="0.25" d="M35.8219 59.5294C44.3446 59.5294 51.2537 52.6194 51.2537 44.0956C51.2537 35.5717 44.3446 28.6618 35.8219 28.6618C27.2992 28.6618 20.3901 35.5717 20.3901 44.0956C20.3901 52.6194 27.2992 59.5294 35.8219 59.5294Z" fill="#A3D5FF"/>
<path opacity="0.25" d="M35.8214 52.4154C40.4157 52.4154 44.1401 48.6905 44.1401 44.0956C44.1401 39.5007 40.4157 35.7758 35.8214 35.7758C31.2271 35.7758 27.5027 39.5007 27.5027 44.0956C27.5027 48.6905 31.2271 52.4154 35.8214 52.4154Z" fill="#A3D5FF"/>
<path d="M40.106 21.8612L36.365 40.0635L57.7392 16L40.106 21.8612Z" fill="#4549C4"/>
<path d="M17.4758 48.7679L16.1086 59.486L28.5167 50.4584L17.4758 48.7679Z" fill="#4549C4"/>
<path d="M53.6221 41.1053L41.437 44.4067L61.9998 46.3733L53.6221 41.1053Z" fill="#7681B3"/>
<path d="M49.2558 57.5881L49.0629 69.6313L33.3635 49.3949L49.2558 57.5881Z" fill="#56B5F0"/>
<path d="M18.7864 41.7805L28.8098 40.2419L15.5132 23.8315L18.7864 41.7805Z" fill="#56B5F0"/>
<defs>
<filter id="filter0_d" x="-11" y="-2.72881" width="93.643" height="93.6488" filterUnits="userSpaceOnUse" color-interpolation-filters="sRGB">
<feFlood flood-opacity="0" result="BackgroundImageFix"/>
<feColorMatrix in="SourceAlpha" type="matrix" values="0 0 0 0 0 0 0 0 0 0 0 0 0 0 0 0 0 0 127 0"/>
<feOffset/>
<feGaussianBlur stdDeviation="12.5"/>
<feColorMatrix type="matrix" values="0 0 0 0 1 0 0 0 0 1 0 0 0 0 1 0 0 0 0.5 0"/>
<feBlend mode="normal" in2="BackgroundImageFix" result="effect1_dropShadow"/>
<feBlend mode="normal" in="SourceGraphic" in2="effect1_dropShadow" result="shape"/>
</filter>
</defs>
</svg>
