<svg width="56" height="56" viewBox="0 0 56 56" fill="none" xmlns="http://www.w3.org/2000/svg">
<g opacity="0.4" clip-path="url(#clip0)">
<path d="M24.4999 30.9177C24.4999 29.3104 23.1895 28 21.5822 28C19.9753 28 18.6646 29.3104 18.6646 30.9177C18.6646 32.5245 19.9753 33.8353 21.5822 33.8353C23.1895 33.8353 24.4999 32.525 24.4999 30.9177Z" fill="#4549C4"/>
<path d="M33.8631 37.5538C32.6087 38.8082 29.9209 39.2559 28.0056 39.2559C26.0847 39.2559 23.4025 38.8082 22.1481 37.5538C21.8511 37.2568 21.3752 37.2568 21.0787 37.5538C20.7817 37.8507 20.7817 38.3266 21.0787 38.6232C23.0666 40.6111 26.8858 40.7679 28.0056 40.7679C29.1254 40.7679 32.939 40.6111 34.933 38.6232C35.2239 38.3262 35.2239 37.8503 34.933 37.5538C34.636 37.2568 34.1601 37.2568 33.8631 37.5538Z" fill="#4549C4"/>
<path d="M34.4177 28C32.8104 28 31.5 29.3104 31.5 30.9177C31.5 32.5245 32.8104 33.8353 34.4177 33.8353C36.0245 33.8353 37.3353 32.5245 37.3353 30.9177C37.3353 29.3104 36.025 28 34.4177 28Z" fill="#4549C4"/>
<path d="M51.9612 0H4.03876C1.80811 0 0 1.80811 0 4.03876V51.9612C0 54.1919 1.80811 56 4.03876 56H51.9612C54.1919 56 56 54.1919 56 51.9612V4.03876C56 1.80811 54.1919 0 51.9612 0V0ZM44.2456 31.735C44.3071 32.1383 44.3409 32.5472 44.3409 32.9616C44.3409 39.2447 37.0273 44.3353 28.0056 44.3353C18.9838 44.3353 11.6702 39.2447 11.6702 32.9616C11.6702 32.5416 11.704 32.1272 11.7655 31.7239C10.3432 31.0856 9.35199 29.6577 9.35199 28C9.35199 25.7488 11.1776 23.9177 13.4343 23.9177C14.5319 23.9177 15.5231 24.3488 16.2567 25.0546C19.0902 23.0106 23.0106 21.7054 27.3728 21.5934C27.3728 21.5375 29.4112 11.827 29.4112 11.827C29.4505 11.6369 29.5624 11.4741 29.7248 11.3682C29.8871 11.2618 30.0833 11.228 30.2738 11.2673L37.061 12.7119C37.537 11.7488 38.5167 11.0823 39.6647 11.0823C41.2775 11.0823 42.5823 12.3871 42.5823 14C42.5823 15.6129 41.2775 16.9177 39.6647 16.9177C38.1022 16.9177 36.8367 15.6855 36.7641 14.1401L30.6878 12.8464L28.8289 21.5994C33.1129 21.7502 36.9602 23.0495 39.7488 25.0657C40.4824 24.3547 41.4792 23.9177 42.5823 23.9177C44.8395 23.9177 46.6647 25.7433 46.6647 28C46.6647 29.6688 45.6624 31.0967 44.2456 31.735Z" fill="#4549C4"/>
</g>
<defs>
<clipPath id="clip0">
<rect width="56" height="56" fill="white"/>
</clipPath>
</defs>
</svg>
