<svg width="163" height="38" viewBox="0 0 163 38" fill="none" xmlns="http://www.w3.org/2000/svg">
<path d="M59.056 13.292C58.5893 12.7693 57.8707 12.2933 56.9 11.864C55.9293 11.4347 54.8467 11.22 53.652 11.22C52.1213 11.22 50.992 11.5093 50.264 12.088C49.536 12.6667 49.172 13.46 49.172 14.468C49.172 15.1773 49.3587 15.7373 49.732 16.148C50.1053 16.5587 50.6747 16.8947 51.44 17.156C52.224 17.4173 53.2133 17.688 54.408 17.968C55.7893 18.2667 56.984 18.6307 57.992 19.06C59 19.4893 59.7747 20.068 60.316 20.796C60.8573 21.5053 61.128 22.4573 61.128 23.652C61.128 24.9213 60.8107 25.9667 60.176 26.788C59.5413 27.6093 58.6733 28.216 57.572 28.608C56.4893 29 55.2667 29.196 53.904 29.196C50.8053 29.196 48.108 28.2627 45.812 26.396L47.016 24.268C47.4267 24.6787 47.9773 25.0893 48.668 25.5C49.3773 25.9107 50.18 26.256 51.076 26.536C51.9907 26.7973 52.952 26.928 53.96 26.928C55.3787 26.928 56.48 26.676 57.264 26.172C58.048 25.6493 58.44 24.8933 58.44 23.904C58.44 23.1573 58.216 22.56 57.768 22.112C57.3387 21.664 56.6947 21.2907 55.836 20.992C54.9773 20.6933 53.932 20.3947 52.7 20.096C51.356 19.76 50.2267 19.396 49.312 19.004C48.3973 18.5933 47.7067 18.0613 47.24 17.408C46.792 16.7547 46.568 15.9053 46.568 14.86C46.568 13.5907 46.876 12.5173 47.492 11.64C48.108 10.7627 48.9573 10.1 50.04 9.652C51.1227 9.204 52.3453 8.98 53.708 8.98C55.0333 8.98 56.2373 9.18533 57.32 9.596C58.4213 10.0067 59.392 10.5573 60.232 11.248L59.056 13.292ZM71.3371 28.272C71.0384 28.4027 70.5624 28.5893 69.9091 28.832C69.2744 29.0747 68.5651 29.196 67.7811 29.196C66.8851 29.196 66.1104 28.9533 65.4571 28.468C64.8037 27.964 64.4771 27.1893 64.4771 26.144V16.316H62.4891V14.384H64.4771V9.512H66.9411V14.384H70.2171V16.316H66.9411V25.388C66.9784 25.9107 67.1557 26.3027 67.4731 26.564C67.7904 26.8067 68.1637 26.928 68.5931 26.928C69.0784 26.928 69.5264 26.844 69.9371 26.676C70.3477 26.508 70.6184 26.3867 70.7491 26.312L71.3371 28.272ZM72.4728 24.772C72.4728 23.8387 72.7341 23.036 73.2568 22.364C73.7981 21.6733 74.5355 21.1413 75.4688 20.768C76.4021 20.3947 77.4848 20.208 78.7168 20.208C79.3701 20.208 80.0608 20.264 80.7888 20.376C81.5168 20.4693 82.1608 20.6187 82.7208 20.824V19.76C82.7208 18.64 82.3848 17.7627 81.7128 17.128C81.0408 16.4747 80.0888 16.148 78.8568 16.148C78.0541 16.148 77.2795 16.2973 76.5328 16.596C75.8048 16.876 75.0301 17.2867 74.2088 17.828L73.3128 16.092C74.2648 15.4387 75.2168 14.9533 76.1688 14.636C77.1208 14.3 78.1101 14.132 79.1368 14.132C81.0035 14.132 82.4781 14.6547 83.5608 15.7C84.6435 16.7267 85.1848 18.164 85.1848 20.012V26.2C85.1848 26.7787 85.4461 27.0773 85.9688 27.096V29C85.7261 29.0373 85.5115 29.0653 85.3248 29.084C85.1568 29.1027 85.0168 29.112 84.9048 29.112C84.3261 29.112 83.8875 28.9533 83.5888 28.636C83.3088 28.3187 83.1501 27.9827 83.1128 27.628L83.0568 26.704C82.4221 27.5253 81.5915 28.16 80.5648 28.608C79.5381 29.056 78.5208 29.28 77.5128 29.28C76.5421 29.28 75.6741 29.084 74.9088 28.692C74.1435 28.2813 73.5461 27.74 73.1168 27.068C72.6875 26.3773 72.4728 25.612 72.4728 24.772ZM81.9928 25.808C82.2168 25.5467 82.3941 25.2853 82.5248 25.024C82.6555 24.744 82.7208 24.5107 82.7208 24.324V22.504C81.5261 22.0373 80.2941 21.804 79.0248 21.804C77.7741 21.804 76.7568 22.056 75.9728 22.56C75.2075 23.0453 74.8248 23.7173 74.8248 24.576C74.8248 25.0427 74.9461 25.5 75.1888 25.948C75.4501 26.3773 75.8235 26.732 76.3088 27.012C76.8128 27.292 77.4288 27.432 78.1568 27.432C78.9221 27.432 79.6501 27.2827 80.3408 26.984C81.0315 26.6667 81.5821 26.2747 81.9928 25.808ZM96.5753 28.272C96.2767 28.4027 95.8007 28.5893 95.1473 28.832C94.5127 29.0747 93.8033 29.196 93.0193 29.196C92.1233 29.196 91.3487 28.9533 90.6953 28.468C90.042 27.964 89.7153 27.1893 89.7153 26.144V16.316H87.7273V14.384H89.7153V9.512H92.1793V14.384H95.4553V16.316H92.1793V25.388C92.2167 25.9107 92.394 26.3027 92.7113 26.564C93.0287 26.8067 93.402 26.928 93.8313 26.928C94.3167 26.928 94.7647 26.844 95.1753 26.676C95.586 26.508 95.8567 26.3867 95.9873 26.312L96.5753 28.272ZM98.8591 11.64V8.56H101.323V11.64H98.8591ZM98.8591 29V14.384H101.323V29H98.8591ZM110.324 29.28C109.111 29.28 107.972 29.084 106.908 28.692C105.844 28.2813 104.93 27.6747 104.164 26.872L105.116 25.136C105.956 25.92 106.796 26.48 107.636 26.816C108.476 27.152 109.335 27.32 110.212 27.32C111.22 27.32 112.042 27.1333 112.676 26.76C113.311 26.368 113.628 25.7987 113.628 25.052C113.628 24.5107 113.46 24.1093 113.124 23.848C112.807 23.5867 112.35 23.372 111.752 23.204C111.155 23.0173 110.446 22.812 109.624 22.588C108.112 22.1587 106.955 21.6547 106.152 21.076C105.368 20.4787 104.976 19.6107 104.976 18.472C104.976 17.0907 105.499 16.0267 106.544 15.28C107.608 14.5147 108.962 14.132 110.604 14.132C112.807 14.132 114.543 14.7947 115.812 16.12L114.692 17.828C113.554 16.652 112.144 16.064 110.464 16.064C109.96 16.064 109.466 16.1293 108.98 16.26C108.495 16.372 108.094 16.5867 107.776 16.904C107.459 17.2027 107.3 17.632 107.3 18.192C107.3 18.8827 107.58 19.3773 108.14 19.676C108.7 19.9747 109.522 20.2827 110.604 20.6C111.706 20.9173 112.658 21.2347 113.46 21.552C114.282 21.8693 114.916 22.28 115.364 22.784C115.812 23.288 116.036 23.988 116.036 24.884C116.036 26.2653 115.514 27.348 114.468 28.132C113.423 28.8973 112.042 29.28 110.324 29.28ZM126.544 28.272C126.245 28.4027 125.769 28.5893 125.116 28.832C124.481 29.0747 123.772 29.196 122.988 29.196C122.092 29.196 121.317 28.9533 120.664 28.468C120.011 27.964 119.684 27.1893 119.684 26.144V16.316H117.696V14.384H119.684V9.512H122.148V14.384H125.424V16.316H122.148V25.388C122.185 25.9107 122.363 26.3027 122.68 26.564C122.997 26.8067 123.371 26.928 123.8 26.928C124.285 26.928 124.733 26.844 125.144 26.676C125.555 26.508 125.825 26.3867 125.956 26.312L126.544 28.272ZM128.828 11.64V8.56H131.292V11.64H128.828ZM128.828 29V14.384H131.292V29H128.828ZM141.749 29.28C140.293 29.28 139.005 28.9347 137.885 28.244C136.765 27.5347 135.888 26.6013 135.253 25.444C134.618 24.2867 134.301 23.0267 134.301 21.664C134.301 20.2827 134.609 19.0227 135.225 17.884C135.841 16.7453 136.709 15.84 137.829 15.168C138.949 14.4773 140.246 14.132 141.721 14.132C143.158 14.132 144.409 14.4587 145.473 15.112C146.556 15.7467 147.358 16.6053 147.881 17.688L145.473 18.444C145.1 17.7533 144.577 17.2213 143.905 16.848C143.233 16.456 142.486 16.26 141.665 16.26C140.769 16.26 139.948 16.4933 139.201 16.96C138.473 17.4267 137.894 18.0707 137.465 18.892C137.036 19.6947 136.821 20.6187 136.821 21.664C136.821 22.6907 137.036 23.624 137.465 24.464C137.913 25.2853 138.501 25.9387 139.229 26.424C139.976 26.9093 140.797 27.152 141.693 27.152C142.272 27.152 142.822 27.0493 143.345 26.844C143.886 26.6387 144.353 26.368 144.745 26.032C145.156 25.6773 145.436 25.2947 145.585 24.884L147.993 25.612C147.564 26.676 146.78 27.5533 145.641 28.244C144.521 28.9347 143.224 29.28 141.749 29.28ZM155.797 29.28C154.584 29.28 153.445 29.084 152.381 28.692C151.317 28.2813 150.402 27.6747 149.637 26.872L150.589 25.136C151.429 25.92 152.269 26.48 153.109 26.816C153.949 27.152 154.808 27.32 155.685 27.32C156.693 27.32 157.514 27.1333 158.149 26.76C158.784 26.368 159.101 25.7987 159.101 25.052C159.101 24.5107 158.933 24.1093 158.597 23.848C158.28 23.5867 157.822 23.372 157.225 23.204C156.628 23.0173 155.918 22.812 155.097 22.588C153.585 22.1587 152.428 21.6547 151.625 21.076C150.841 20.4787 150.449 19.6107 150.449 18.472C150.449 17.0907 150.972 16.0267 152.017 15.28C153.081 14.5147 154.434 14.132 156.077 14.132C158.28 14.132 160.016 14.7947 161.285 16.12L160.165 17.828C159.026 16.652 157.617 16.064 155.937 16.064C155.433 16.064 154.938 16.1293 154.453 16.26C153.968 16.372 153.566 16.5867 153.249 16.904C152.932 17.2027 152.773 17.632 152.773 18.192C152.773 18.8827 153.053 19.3773 153.613 19.676C154.173 19.9747 154.994 20.2827 156.077 20.6C157.178 20.9173 158.13 21.2347 158.933 21.552C159.754 21.8693 160.389 22.28 160.837 22.784C161.285 23.288 161.509 23.988 161.509 24.884C161.509 26.2653 160.986 27.348 159.941 28.132C158.896 28.8973 157.514 29.28 155.797 29.28Z" fill="#4549C4"/>
<g clip-path="url(#clip0)">
<path opacity="0.25" d="M15.4569 35.3703C23.9935 35.3703 30.9138 28.4471 30.9138 19.9068C30.9138 11.3666 23.9935 4.44336 15.4569 4.44336C6.92028 4.44336 0 11.3666 0 19.9068C0 28.4471 6.92028 35.3703 15.4569 35.3703Z" fill="#A3D5FF"/>
<path opacity="0.25" d="M15.457 30.8422C21.4939 30.8422 26.3878 25.9462 26.3878 19.9067C26.3878 13.8672 21.4939 8.97119 15.457 8.97119C9.42002 8.97119 4.52612 13.8672 4.52612 19.9067C4.52612 25.9462 9.42002 30.8422 15.457 30.8422Z" fill="#A3D5FF"/>
<path opacity="0.25" d="M15.4569 25.8016C18.7111 25.8016 21.3493 23.1623 21.3493 19.9066C21.3493 16.651 18.7111 14.0117 15.4569 14.0117C12.2026 14.0117 9.56445 16.651 9.56445 19.9066C9.56445 23.1623 12.2026 25.8016 15.4569 25.8016Z" fill="#A3D5FF"/>
<path d="M18.4917 4.15293L15.8418 17.05L30.9818 0L18.4917 4.15293Z" fill="#4549C4"/>
<path d="M2.46254 23.2173L1.49414 30.8115L10.2832 24.4151L2.46254 23.2173Z" fill="#4549C4"/>
<path d="M28.0659 17.7881L19.4348 20.1273L34.0001 21.5207L28.0659 17.7881Z" fill="#7681B3"/>
<path d="M24.9724 29.4668L24.8357 37.9999L13.7153 23.6616L24.9724 29.4668Z" fill="#56B5F0"/>
<path d="M3.39055 18.2665L10.4905 17.1763L1.07202 5.54883L3.39055 18.2665Z" fill="#56B5F0"/>
</g>
<defs>
<clipPath id="clip0">
<rect width="34" height="38" fill="white"/>
</clipPath>
</defs>
</svg>
