<svg width="56" height="56" viewBox="0 0 56 56" fill="none" xmlns="http://www.w3.org/2000/svg">
<g opacity="0.4" clip-path="url(#clip0)">
<path d="M51.9612 0H4.03878C1.80808 0 0 1.80808 0 4.03878V51.9612C0 54.1919 1.80808 56 4.03878 56H51.9612C54.1919 56 56 54.1919 56 51.9612V4.03878C56 1.80808 54.1919 0 51.9612 0V0ZM42.027 21.433V25.2188C40.2418 25.2195 38.5072 24.8697 36.8714 24.1794C35.8195 23.7354 34.8396 23.1631 33.9432 22.4717L33.9701 34.1248C33.9589 36.7488 32.9208 39.2142 31.0419 41.0712C29.5129 42.5827 27.5753 43.544 25.4753 43.8551C24.9818 43.9282 24.4797 43.9657 23.9718 43.9657C21.7238 43.9657 19.5895 43.2374 17.8437 41.8938C17.5151 41.6408 17.201 41.3666 16.9017 41.0712C14.8655 39.0587 13.8155 36.3309 13.9922 33.4614C14.1272 31.2771 15.0017 29.1939 16.4595 27.5612C18.3883 25.4006 21.0867 24.2013 23.9718 24.2013C24.4797 24.2013 24.9818 24.2394 25.4753 24.3125V25.7123V29.6062C25.0075 29.4518 24.5078 29.367 23.9875 29.367C21.3515 29.367 19.219 31.5175 19.2584 34.1553C19.2834 35.8431 20.2054 37.3184 21.5651 38.1316C22.2041 38.5139 22.9393 38.7506 23.7239 38.7937C24.3386 38.8274 24.9288 38.7418 25.4753 38.5614C27.3585 37.9392 28.7171 36.1703 28.7171 34.0841L28.7233 26.2806V12.0343H33.937C33.942 12.5509 33.9944 13.055 34.0919 13.5434C34.4854 15.5203 35.5997 17.2355 37.1506 18.4049C38.503 19.4249 40.1869 20.0295 42.0121 20.0295C42.0133 20.0295 42.0283 20.0295 42.0271 20.0283V21.433H42.027Z" fill="#4549C4"/>
</g>
<defs>
<clipPath id="clip0">
<rect width="56" height="56" fill="white"/>
</clipPath>
</defs>
</svg>
