<svg width="137" height="38" viewBox="0 0 137 38" fill="none" xmlns="http://www.w3.org/2000/svg">
<path d="M61.744 11.36H54.884V29H52.364V11.36H45.504V9.12H61.744V11.36ZM71.9139 16.54C70.6819 16.5773 69.5899 16.8947 68.6379 17.492C67.7046 18.0893 67.0419 18.92 66.6499 19.984V29H64.1859V14.384H66.4819V17.772C66.9859 16.764 67.6486 15.9333 68.4699 15.28C69.2912 14.608 70.1686 14.272 71.1019 14.272C71.2886 14.272 71.4472 14.272 71.5779 14.272C71.7086 14.272 71.8206 14.2813 71.9139 14.3V16.54ZM80.8544 29.28C79.7531 29.28 78.7451 29.084 77.8304 28.692C76.9158 28.2813 76.1318 27.7307 75.4784 27.04C74.8251 26.3493 74.3118 25.5467 73.9384 24.632C73.5838 23.6987 73.4064 22.7187 73.4064 21.692C73.4064 20.6653 73.5838 19.6947 73.9384 18.78C74.3118 17.8653 74.8251 17.0627 75.4784 16.372C76.1504 15.6813 76.9438 15.14 77.8584 14.748C78.7731 14.3373 79.7811 14.132 80.8824 14.132C81.9838 14.132 82.9824 14.3373 83.8784 14.748C84.7931 15.1587 85.5678 15.7093 86.2024 16.4C86.8371 17.072 87.3224 17.8653 87.6584 18.78C88.0131 19.676 88.1904 20.6093 88.1904 21.58C88.1904 21.7853 88.1811 21.972 88.1624 22.14C88.1624 22.308 88.1531 22.4387 88.1344 22.532H76.0104C76.0664 23.26 76.2344 23.9227 76.5144 24.52C76.7944 25.1173 77.1584 25.6307 77.6064 26.06C78.0544 26.4893 78.5584 26.8253 79.1184 27.068C79.6971 27.3107 80.3038 27.432 80.9384 27.432C81.3864 27.432 81.8251 27.376 82.2544 27.264C82.6838 27.1333 83.0851 26.9653 83.4584 26.76C83.8318 26.5547 84.1584 26.3027 84.4384 26.004C84.7371 25.7053 84.9611 25.3693 85.1104 24.996L87.2384 25.584C86.9958 26.1253 86.6598 26.62 86.2304 27.068C85.8198 27.516 85.3344 27.908 84.7744 28.244C84.2331 28.5613 83.6264 28.8133 82.9544 29C82.2824 29.1867 81.5824 29.28 80.8544 29.28ZM85.8664 20.712C85.8104 20.0213 85.6331 19.3867 85.3344 18.808C85.0544 18.2107 84.6904 17.7067 84.2424 17.296C83.8131 16.8853 83.3091 16.568 82.7304 16.344C82.1518 16.1013 81.5358 15.98 80.8824 15.98C80.2291 15.98 79.6131 16.1013 79.0344 16.344C78.4558 16.568 77.9424 16.8947 77.4944 17.324C77.0651 17.7347 76.7104 18.2293 76.4304 18.808C76.1691 19.3867 76.0104 20.0213 75.9544 20.712H85.8664ZM103.557 29H101.093V20.824C101.093 19.256 100.851 18.1173 100.365 17.408C99.8987 16.6987 99.1801 16.344 98.2094 16.344C97.7054 16.344 97.2014 16.4467 96.6974 16.652C96.1934 16.8387 95.7174 17.1 95.2694 17.436C94.8214 17.772 94.4294 18.1733 94.0934 18.64C93.7574 19.1067 93.5054 19.62 93.3374 20.18V29H90.8734V14.384H93.1134V17.52C93.6921 16.4933 94.5227 15.672 95.6054 15.056C96.7067 14.44 97.9014 14.132 99.1894 14.132C100.029 14.132 100.729 14.2907 101.289 14.608C101.849 14.9067 102.297 15.336 102.633 15.896C102.969 16.4373 103.203 17.0813 103.333 17.828C103.483 18.5747 103.557 19.3867 103.557 20.264V29ZM113.328 29.28C112.32 29.28 111.386 29.0747 110.528 28.664C109.669 28.2533 108.932 27.7027 108.316 27.012C107.7 26.3213 107.214 25.5187 106.86 24.604C106.524 23.6893 106.356 22.728 106.356 21.72C106.356 20.6933 106.514 19.7227 106.832 18.808C107.168 17.8747 107.625 17.0627 108.204 16.372C108.801 15.6813 109.501 15.14 110.304 14.748C111.125 14.3373 112.021 14.132 112.992 14.132C114.168 14.132 115.213 14.44 116.128 15.056C117.061 15.672 117.798 16.4187 118.34 17.296V8.56H120.804V25.976C120.804 26.5547 121.065 26.8533 121.588 26.872V29C121.382 29.0373 121.196 29.0653 121.028 29.084C120.878 29.1027 120.738 29.112 120.608 29.112C120.048 29.112 119.6 28.972 119.264 28.692C118.928 28.3933 118.75 28.0387 118.732 27.628L118.676 26.256C118.097 27.208 117.322 27.9547 116.352 28.496C115.4 29.0187 114.392 29.28 113.328 29.28ZM113.916 27.152C114.364 27.152 114.821 27.068 115.288 26.9C115.773 26.732 116.221 26.4987 116.632 26.2C117.061 25.9013 117.425 25.556 117.724 25.164C118.041 24.7533 118.246 24.324 118.34 23.876V19.676C118.172 19.2093 117.92 18.7707 117.584 18.36C117.248 17.9307 116.865 17.5667 116.436 17.268C116.025 16.9507 115.577 16.708 115.092 16.54C114.625 16.3533 114.158 16.26 113.692 16.26C112.964 16.26 112.301 16.4187 111.704 16.736C111.125 17.0347 110.621 17.4453 110.192 17.968C109.781 18.472 109.464 19.06 109.24 19.732C109.016 20.3853 108.904 21.0573 108.904 21.748C108.904 22.476 109.034 23.176 109.296 23.848C109.557 24.5013 109.912 25.0707 110.36 25.556C110.808 26.0413 111.33 26.4333 111.928 26.732C112.544 27.012 113.206 27.152 113.916 27.152ZM130.124 29.28C128.948 29.28 127.79 29.1027 126.652 28.748C125.513 28.3747 124.533 27.8427 123.712 27.152L124.776 25.5C125.634 26.1533 126.493 26.648 127.352 26.984C128.21 27.3013 129.116 27.46 130.068 27.46C131.132 27.46 131.972 27.2547 132.588 26.844C133.222 26.4147 133.54 25.8173 133.54 25.052C133.54 24.6973 133.456 24.3987 133.288 24.156C133.12 23.8947 132.868 23.6707 132.532 23.484C132.196 23.2973 131.766 23.1293 131.244 22.98C130.721 22.8307 130.114 22.672 129.424 22.504C128.546 22.28 127.79 22.0653 127.156 21.86C126.521 21.6547 125.998 21.412 125.588 21.132C125.177 20.852 124.878 20.516 124.692 20.124C124.505 19.732 124.412 19.2467 124.412 18.668C124.412 17.94 124.552 17.296 124.832 16.736C125.13 16.1573 125.532 15.6813 126.036 15.308C126.54 14.916 127.128 14.6267 127.8 14.44C128.49 14.2347 129.228 14.132 130.012 14.132C131.113 14.132 132.14 14.3093 133.092 14.664C134.044 15.0187 134.846 15.4853 135.5 16.064L134.38 17.548C133.764 17.0067 133.073 16.6053 132.308 16.344C131.542 16.064 130.758 15.924 129.956 15.924C129.06 15.924 128.294 16.12 127.66 16.512C127.044 16.8853 126.736 17.492 126.736 18.332C126.736 18.668 126.792 18.948 126.904 19.172C127.034 19.396 127.24 19.592 127.52 19.76C127.8 19.928 128.154 20.0773 128.584 20.208C129.032 20.3387 129.564 20.4787 130.18 20.628C131.15 20.852 131.99 21.0853 132.7 21.328C133.428 21.552 134.025 21.8227 134.492 22.14C134.977 22.4573 135.332 22.8307 135.556 23.26C135.798 23.6893 135.92 24.212 135.92 24.828C135.92 26.1907 135.397 27.2733 134.352 28.076C133.306 28.8787 131.897 29.28 130.124 29.28Z" fill="#4549C4"/>
<g clip-path="url(#clip0)">
<path opacity="0.25" d="M15.4569 35.3703C23.9935 35.3703 30.9138 28.4471 30.9138 19.9068C30.9138 11.3666 23.9935 4.44336 15.4569 4.44336C6.92028 4.44336 0 11.3666 0 19.9068C0 28.4471 6.92028 35.3703 15.4569 35.3703Z" fill="#A3D5FF"/>
<path opacity="0.25" d="M15.457 30.8422C21.4939 30.8422 26.3878 25.9462 26.3878 19.9067C26.3878 13.8672 21.4939 8.97119 15.457 8.97119C9.42002 8.97119 4.52612 13.8672 4.52612 19.9067C4.52612 25.9462 9.42002 30.8422 15.457 30.8422Z" fill="#A3D5FF"/>
<path opacity="0.25" d="M15.4569 25.8016C18.7111 25.8016 21.3493 23.1623 21.3493 19.9066C21.3493 16.651 18.7111 14.0117 15.4569 14.0117C12.2026 14.0117 9.56445 16.651 9.56445 19.9066C9.56445 23.1623 12.2026 25.8016 15.4569 25.8016Z" fill="#A3D5FF"/>
<path d="M18.4917 4.15293L15.8418 17.05L30.9818 0L18.4917 4.15293Z" fill="#4549C4"/>
<path d="M2.46254 23.2173L1.49414 30.8115L10.2832 24.4151L2.46254 23.2173Z" fill="#4549C4"/>
<path d="M28.0659 17.7881L19.4348 20.1273L34.0001 21.5207L28.0659 17.7881Z" fill="#7681B3"/>
<path d="M24.9724 29.4668L24.8357 37.9999L13.7153 23.6616L24.9724 29.4668Z" fill="#56B5F0"/>
<path d="M3.39055 18.2665L10.4905 17.1763L1.07202 5.54883L3.39055 18.2665Z" fill="#56B5F0"/>
</g>
<defs>
<clipPath id="clip0">
<rect width="34" height="38" fill="white"/>
</clipPath>
</defs>
</svg>
