<svg width="56" height="56" viewBox="0 0 56 56" fill="none" xmlns="http://www.w3.org/2000/svg">
<g opacity="0.4" clip-path="url(#clip0)">
<path d="M51.9612 0H4.03876C1.80811 0 0 1.80811 0 4.03876V51.9612C0 54.1919 1.80811 56 4.03876 56H51.9612C54.1919 56 56 54.1919 56 51.9612V4.03876C56 1.80811 54.1919 0 51.9612 0V0ZM40.7845 21.8314C40.7969 22.107 40.8029 22.3839 40.8029 22.662C40.8029 31.1544 34.3386 40.9473 22.5172 40.9477H22.5176H22.5172C18.8877 40.9477 15.5103 39.8839 12.6661 38.0608C13.169 38.1202 13.6808 38.1497 14.1991 38.1497C17.2103 38.1497 19.9814 37.1226 22.1813 35.3986C19.3679 35.3465 16.9958 33.4884 16.1772 30.9348C16.569 31.0099 16.9719 31.051 17.3851 31.051C17.9717 31.051 18.5399 30.9719 19.08 30.8245C16.1392 30.2358 13.924 27.6368 13.924 24.5248C13.924 24.4957 13.924 24.4697 13.9248 24.4427C14.7908 24.9243 15.7812 25.2139 16.8356 25.2464C15.11 24.095 13.9756 22.1266 13.9756 19.8969C13.9756 18.7194 14.2939 17.6162 14.8459 16.6664C18.0153 20.5552 22.7517 23.1127 28.0931 23.3815C27.9829 22.9106 27.9261 22.4202 27.9261 21.916C27.9261 18.3682 30.8044 15.4898 34.3536 15.4898C36.2023 15.4898 37.8719 16.2712 39.0447 17.5205C40.5089 17.2317 41.8838 16.6968 43.1258 15.9606C42.6451 17.4607 41.6266 18.7194 40.2996 19.5153C41.5997 19.3598 42.8387 19.015 43.9901 18.5032C43.1301 19.7922 42.0393 20.9244 40.7845 21.8314Z" fill="#4549C4"/>
</g>
<defs>
<clipPath id="clip0">
<rect width="56" height="56" fill="white"/>
</clipPath>
</defs>
</svg>
